<?xml version="1.0" encoding="utf-8" standalone="no"?>
<!DOCTYPE svg PUBLIC "-//W3C//DTD SVG 1.1//EN"
  "http://www.w3.org/Graphics/SVG/1.1/DTD/svg11.dtd">
<svg height="288pt" version="1.1" viewBox="0 0 432 288" width="432pt" xmlns="http://www.w3.org/2000/svg" xmlns:xlink="http://www.w3.org/1999/xlink">
 <metadata>
  <rdf:RDF xmlns:cc="http://creativecommons.org/ns#" xmlns:dc="http://purl.org/dc/elements/1.1/" xmlns:rdf="http://www.w3.org/1999/02/22-rdf-syntax-ns#">
   <cc:Work>
    <dc:type rdf:resource="http://purl.org/dc/dcmitype/StillImage"/>
    <dc:date>2021-11-18T09:01:11.699627</dc:date>
    <dc:format>image/svg+xml</dc:format>
    <dc:creator>
     <cc:Agent>
      <dc:title>Matplotlib v3.4.3, https://matplotlib.org/</dc:title>
     </cc:Agent>
    </dc:creator>
   </cc:Work>
  </rdf:RDF>
 </metadata>
 <defs>
  <style type="text/css">*{stroke-linecap:butt;stroke-linejoin:round;}</style>
 </defs>
 <g id="figure_1">
  <g id="patch_1">
   <path d="M 0 288 
L 432 288 
L 432 0 
L 0 0 
z
" style="fill:none;"/>
  </g>
  <g id="axes_1">
   <g id="patch_2">
    <path d="M 56.925 263.2 
L 421.2 263.2 
L 421.2 26.8 
L 56.925 26.8 
z
" style="fill:#ffffff;"/>
   </g>
   <g id="patch_3">
    <path clip-path="url(#p43f5a58fdc)" d="M 57.343707 224556.302652 
L 60.693362 224556.302652 
L 60.693362 37.545455 
L 57.343707 37.545455 
z
" style="fill:#ea96a3;"/>
   </g>
   <g id="patch_4">
    <path clip-path="url(#p43f5a58fdc)" d="M 61.530776 224556.302652 
L 64.880431 224556.302652 
L 64.880431 74.013534 
L 61.530776 74.013534 
z
" style="fill:#ea969e;"/>
   </g>
   <g id="patch_5">
    <path clip-path="url(#p43f5a58fdc)" d="M 65.717845 224556.302652 
L 69.0675 224556.302652 
L 69.0675 77.907258 
L 65.717845 77.907258 
z
" style="fill:#ea9798;"/>
   </g>
   <g id="patch_6">
    <path clip-path="url(#p43f5a58fdc)" d="M 69.904914 224556.302652 
L 73.254569 224556.302652 
L 73.254569 89.636499 
L 69.904914 89.636499 
z
" style="fill:#e99790;"/>
   </g>
   <g id="patch_7">
    <path clip-path="url(#p43f5a58fdc)" d="M 74.091983 224556.302652 
L 77.441638 224556.302652 
L 77.441638 91.760584 
L 74.091983 91.760584 
z
" style="fill:#e89687;"/>
   </g>
   <g id="patch_8">
    <path clip-path="url(#p43f5a58fdc)" d="M 78.279052 224556.302652 
L 81.628707 224556.302652 
L 81.628707 93.202872 
L 78.279052 93.202872 
z
" style="fill:#e6957c;"/>
   </g>
   <g id="patch_9">
    <path clip-path="url(#p43f5a58fdc)" d="M 82.466121 224556.302652 
L 85.815776 224556.302652 
L 85.815776 94.519485 
L 82.466121 94.519485 
z
" style="fill:#e4946d;"/>
   </g>
   <g id="patch_10">
    <path clip-path="url(#p43f5a58fdc)" d="M 86.65319 224556.302652 
L 90.002845 224556.302652 
L 90.002845 94.814503 
L 86.65319 94.814503 
z
" style="fill:#e29259;"/>
   </g>
   <g id="patch_11">
    <path clip-path="url(#p43f5a58fdc)" d="M 90.840259 224556.302652 
L 94.189914 224556.302652 
L 94.189914 99.350712 
L 90.840259 99.350712 
z
" style="fill:#dc924e;"/>
   </g>
   <g id="patch_12">
    <path clip-path="url(#p43f5a58fdc)" d="M 95.027328 224556.302652 
L 98.376983 224556.302652 
L 98.376983 101.226174 
L 95.027328 101.226174 
z
" style="fill:#d5954d;"/>
   </g>
   <g id="patch_13">
    <path clip-path="url(#p43f5a58fdc)" d="M 99.214397 224556.302652 
L 102.564052 224556.302652 
L 102.564052 108.770579 
L 99.214397 108.770579 
z
" style="fill:#cf964c;"/>
   </g>
   <g id="patch_14">
    <path clip-path="url(#p43f5a58fdc)" d="M 103.401466 224556.302652 
L 106.751121 224556.302652 
L 106.751121 110.144572 
L 103.401466 110.144572 
z
" style="fill:#ca984c;"/>
   </g>
   <g id="patch_15">
    <path clip-path="url(#p43f5a58fdc)" d="M 107.588534 224556.302652 
L 110.93819 224556.302652 
L 110.93819 116.395201 
L 107.588534 116.395201 
z
" style="fill:#c4994b;"/>
   </g>
   <g id="patch_16">
    <path clip-path="url(#p43f5a58fdc)" d="M 111.775603 224556.302652 
L 115.125259 224556.302652 
L 115.125259 119.582648 
L 111.775603 119.582648 
z
" style="fill:#c09a4a;"/>
   </g>
   <g id="patch_17">
    <path clip-path="url(#p43f5a58fdc)" d="M 115.962672 224556.302652 
L 119.312328 224556.302652 
L 119.312328 119.964607 
L 115.962672 119.964607 
z
" style="fill:#bb9b49;"/>
   </g>
   <g id="patch_18">
    <path clip-path="url(#p43f5a58fdc)" d="M 120.149741 224556.302652 
L 123.499397 224556.302652 
L 123.499397 121.507631 
L 120.149741 121.507631 
z
" style="fill:#b69c49;"/>
   </g>
   <g id="patch_19">
    <path clip-path="url(#p43f5a58fdc)" d="M 124.33681 224556.302652 
L 127.686466 224556.302652 
L 127.686466 123.471504 
L 124.33681 123.471504 
z
" style="fill:#b29d48;"/>
   </g>
   <g id="patch_20">
    <path clip-path="url(#p43f5a58fdc)" d="M 128.523879 224556.302652 
L 131.873534 224556.302652 
L 131.873534 123.471504 
L 128.523879 123.471504 
z
" style="fill:#ad9e47;"/>
   </g>
   <g id="patch_21">
    <path clip-path="url(#p43f5a58fdc)" d="M 132.710948 224556.302652 
L 136.060603 224556.302652 
L 136.060603 125.071679 
L 132.710948 125.071679 
z
" style="fill:#a99e47;"/>
   </g>
   <g id="patch_22">
    <path clip-path="url(#p43f5a58fdc)" d="M 136.898017 224556.302652 
L 140.247672 224556.302652 
L 140.247672 126.085332 
L 136.898017 126.085332 
z
" style="fill:#a49f46;"/>
   </g>
   <g id="patch_23">
    <path clip-path="url(#p43f5a58fdc)" d="M 141.085086 224556.302652 
L 144.434741 224556.302652 
L 144.434741 126.698636 
L 141.085086 126.698636 
z
" style="fill:#9fa045;"/>
   </g>
   <g id="patch_24">
    <path clip-path="url(#p43f5a58fdc)" d="M 145.272155 224556.302652 
L 148.62181 224556.302652 
L 148.62181 128.562114 
L 145.272155 128.562114 
z
" style="fill:#9ba146;"/>
   </g>
   <g id="patch_25">
    <path clip-path="url(#p43f5a58fdc)" d="M 149.459224 224556.302652 
L 152.808879 224556.302652 
L 152.808879 128.562114 
L 149.459224 128.562114 
z
" style="fill:#97a246;"/>
   </g>
   <g id="patch_26">
    <path clip-path="url(#p43f5a58fdc)" d="M 153.646293 224556.302652 
L 156.995948 224556.302652 
L 156.995948 128.981116 
L 153.646293 128.981116 
z
" style="fill:#92a446;"/>
   </g>
   <g id="patch_27">
    <path clip-path="url(#p43f5a58fdc)" d="M 157.833362 224556.302652 
L 161.183017 224556.302652 
L 161.183017 128.981116 
L 157.833362 128.981116 
z
" style="fill:#8da546;"/>
   </g>
   <g id="patch_28">
    <path clip-path="url(#p43f5a58fdc)" d="M 162.020431 224556.302652 
L 165.370086 224556.302652 
L 165.370086 132.399787 
L 162.020431 132.399787 
z
" style="fill:#87a746;"/>
   </g>
   <g id="patch_29">
    <path clip-path="url(#p43f5a58fdc)" d="M 166.2075 224556.302652 
L 169.557155 224556.302652 
L 169.557155 132.617499 
L 166.2075 132.617499 
z
" style="fill:#80a946;"/>
   </g>
   <g id="patch_30">
    <path clip-path="url(#p43f5a58fdc)" d="M 170.394569 224556.302652 
L 173.744224 224556.302652 
L 173.744224 132.617499 
L 170.394569 132.617499 
z
" style="fill:#78aa47;"/>
   </g>
   <g id="patch_31">
    <path clip-path="url(#p43f5a58fdc)" d="M 174.581638 224556.302652 
L 177.931293 224556.302652 
L 177.931293 132.8357 
L 174.581638 132.8357 
z
" style="fill:#6eac47;"/>
   </g>
   <g id="patch_32">
    <path clip-path="url(#p43f5a58fdc)" d="M 178.768707 224556.302652 
L 182.118362 224556.302652 
L 182.118362 132.8357 
L 178.768707 132.8357 
z
" style="fill:#60ae47;"/>
   </g>
   <g id="patch_33">
    <path clip-path="url(#p43f5a58fdc)" d="M 182.955776 224556.302652 
L 186.305431 224556.302652 
L 186.305431 138.225076 
L 182.955776 138.225076 
z
" style="fill:#4ab147;"/>
   </g>
   <g id="patch_34">
    <path clip-path="url(#p43f5a58fdc)" d="M 187.142845 224556.302652 
L 190.4925 224556.302652 
L 190.4925 138.687974 
L 187.142845 138.687974 
z
" style="fill:#48b05d;"/>
   </g>
   <g id="patch_35">
    <path clip-path="url(#p43f5a58fdc)" d="M 191.329914 224556.302652 
L 194.679569 224556.302652 
L 194.679569 139.620436 
L 191.329914 139.620436 
z
" style="fill:#48af6b;"/>
   </g>
   <g id="patch_36">
    <path clip-path="url(#p43f5a58fdc)" d="M 195.516983 224556.302652 
L 198.866638 224556.302652 
L 198.866638 139.854956 
L 195.516983 139.854956 
z
" style="fill:#49af76;"/>
   </g>
   <g id="patch_37">
    <path clip-path="url(#p43f5a58fdc)" d="M 199.704052 224556.302652 
L 203.053707 224556.302652 
L 203.053707 139.854956 
L 199.704052 139.854956 
z
" style="fill:#49ae7d;"/>
   </g>
   <g id="patch_38">
    <path clip-path="url(#p43f5a58fdc)" d="M 203.891121 224556.302652 
L 207.240776 224556.302652 
L 207.240776 141.274083 
L 203.891121 141.274083 
z
" style="fill:#49ae84;"/>
   </g>
   <g id="patch_39">
    <path clip-path="url(#p43f5a58fdc)" d="M 208.07819 224556.302652 
L 211.427845 224556.302652 
L 211.427845 145.162938 
L 208.07819 145.162938 
z
" style="fill:#4aae89;"/>
   </g>
   <g id="patch_40">
    <path clip-path="url(#p43f5a58fdc)" d="M 212.265259 224556.302652 
L 215.614914 224556.302652 
L 215.614914 145.909742 
L 212.265259 145.909742 
z
" style="fill:#4aad8e;"/>
   </g>
   <g id="patch_41">
    <path clip-path="url(#p43f5a58fdc)" d="M 216.452328 224556.302652 
L 219.801983 224556.302652 
L 219.801983 146.159957 
L 216.452328 146.159957 
z
" style="fill:#4aad92;"/>
   </g>
   <g id="patch_42">
    <path clip-path="url(#p43f5a58fdc)" d="M 220.639397 224556.302652 
L 223.989052 224556.302652 
L 223.989052 146.662327 
L 220.639397 146.662327 
z
" style="fill:#4aad96;"/>
   </g>
   <g id="patch_43">
    <path clip-path="url(#p43f5a58fdc)" d="M 224.826466 224556.302652 
L 228.176121 224556.302652 
L 228.176121 147.92973 
L 224.826466 147.92973 
z
" style="fill:#4aac99;"/>
   </g>
   <g id="patch_44">
    <path clip-path="url(#p43f5a58fdc)" d="M 229.013534 224556.302652 
L 232.36319 224556.302652 
L 232.36319 151.568973 
L 229.013534 151.568973 
z
" style="fill:#4bac9d;"/>
   </g>
   <g id="patch_45">
    <path clip-path="url(#p43f5a58fdc)" d="M 233.200603 224556.302652 
L 236.550259 224556.302652 
L 236.550259 152.902443 
L 233.200603 152.902443 
z
" style="fill:#4baca0;"/>
   </g>
   <g id="patch_46">
    <path clip-path="url(#p43f5a58fdc)" d="M 237.387672 224556.302652 
L 240.737328 224556.302652 
L 240.737328 153.711394 
L 237.387672 153.711394 
z
" style="fill:#4baba3;"/>
   </g>
   <g id="patch_47">
    <path clip-path="url(#p43f5a58fdc)" d="M 241.574741 224556.302652 
L 244.924397 224556.302652 
L 244.924397 155.625546 
L 241.574741 155.625546 
z
" style="fill:#4baba6;"/>
   </g>
   <g id="patch_48">
    <path clip-path="url(#p43f5a58fdc)" d="M 245.76181 224556.302652 
L 249.111466 224556.302652 
L 249.111466 157.296793 
L 245.76181 157.296793 
z
" style="fill:#4baba8;"/>
   </g>
   <g id="patch_49">
    <path clip-path="url(#p43f5a58fdc)" d="M 249.948879 224556.302652 
L 253.298534 224556.302652 
L 253.298534 158.711787 
L 249.948879 158.711787 
z
" style="fill:#4cabab;"/>
   </g>
   <g id="patch_50">
    <path clip-path="url(#p43f5a58fdc)" d="M 254.135948 224556.302652 
L 257.485603 224556.302652 
L 257.485603 159.858803 
L 254.135948 159.858803 
z
" style="fill:#4cabaf;"/>
   </g>
   <g id="patch_51">
    <path clip-path="url(#p43f5a58fdc)" d="M 258.323017 224556.302652 
L 261.672672 224556.302652 
L 261.672672 161.605109 
L 258.323017 161.605109 
z
" style="fill:#4dabb2;"/>
   </g>
   <g id="patch_52">
    <path clip-path="url(#p43f5a58fdc)" d="M 262.510086 224556.302652 
L 265.859741 224556.302652 
L 265.859741 162.786989 
L 262.510086 162.786989 
z
" style="fill:#4eabb6;"/>
   </g>
   <g id="patch_53">
    <path clip-path="url(#p43f5a58fdc)" d="M 266.697155 224556.302652 
L 270.04681 224556.302652 
L 270.04681 165.194751 
L 266.697155 165.194751 
z
" style="fill:#4fabba;"/>
   </g>
   <g id="patch_54">
    <path clip-path="url(#p43f5a58fdc)" d="M 270.884224 224556.302652 
L 274.233879 224556.302652 
L 274.233879 167.663669 
L 270.884224 167.663669 
z
" style="fill:#4facbd;"/>
   </g>
   <g id="patch_55">
    <path clip-path="url(#p43f5a58fdc)" d="M 275.071293 224556.302652 
L 278.420948 224556.302652 
L 278.420948 169.5574 
L 275.071293 169.5574 
z
" style="fill:#50acc2;"/>
   </g>
   <g id="patch_56">
    <path clip-path="url(#p43f5a58fdc)" d="M 279.258362 224556.302652 
L 282.608017 224556.302652 
L 282.608017 169.5574 
L 279.258362 169.5574 
z
" style="fill:#51acc6;"/>
   </g>
   <g id="patch_57">
    <path clip-path="url(#p43f5a58fdc)" d="M 283.445431 224556.302652 
L 286.795086 224556.302652 
L 286.795086 170.196932 
L 283.445431 170.196932 
z
" style="fill:#52accb;"/>
   </g>
   <g id="patch_58">
    <path clip-path="url(#p43f5a58fdc)" d="M 287.6325 224556.302652 
L 290.982155 224556.302652 
L 290.982155 170.518282 
L 287.6325 170.518282 
z
" style="fill:#54acd1;"/>
   </g>
   <g id="patch_59">
    <path clip-path="url(#p43f5a58fdc)" d="M 291.819569 224556.302652 
L 295.169224 224556.302652 
L 295.169224 171.164188 
L 291.819569 171.164188 
z
" style="fill:#55acd7;"/>
   </g>
   <g id="patch_60">
    <path clip-path="url(#p43f5a58fdc)" d="M 296.006638 224556.302652 
L 299.356293 224556.302652 
L 299.356293 171.488757 
L 296.006638 171.488757 
z
" style="fill:#57addf;"/>
   </g>
   <g id="patch_61">
    <path clip-path="url(#p43f5a58fdc)" d="M 300.193707 224556.302652 
L 303.543362 224556.302652 
L 303.543362 172.469018 
L 300.193707 172.469018 
z
" style="fill:#6daee2;"/>
   </g>
   <g id="patch_62">
    <path clip-path="url(#p43f5a58fdc)" d="M 304.380776 224556.302652 
L 307.730431 224556.302652 
L 307.730431 173.791602 
L 304.380776 173.791602 
z
" style="fill:#7daee5;"/>
   </g>
   <g id="patch_63">
    <path clip-path="url(#p43f5a58fdc)" d="M 308.567845 224556.302652 
L 311.9175 224556.302652 
L 311.9175 175.470546 
L 308.567845 175.470546 
z
" style="fill:#8aaee7;"/>
   </g>
   <g id="patch_64">
    <path clip-path="url(#p43f5a58fdc)" d="M 312.754914 224556.302652 
L 316.104569 224556.302652 
L 316.104569 175.809843 
L 312.754914 175.809843 
z
" style="fill:#95aee8;"/>
   </g>
   <g id="patch_65">
    <path clip-path="url(#p43f5a58fdc)" d="M 316.941983 224556.302652 
L 320.291638 224556.302652 
L 320.291638 177.524322 
L 316.941983 177.524322 
z
" style="fill:#9fade9;"/>
   </g>
   <g id="patch_66">
    <path clip-path="url(#p43f5a58fdc)" d="M 321.129052 224556.302652 
L 324.478707 224556.302652 
L 324.478707 177.524322 
L 321.129052 177.524322 
z
" style="fill:#a7aceb;"/>
   </g>
   <g id="patch_67">
    <path clip-path="url(#p43f5a58fdc)" d="M 325.316121 224556.302652 
L 328.665776 224556.302652 
L 328.665776 178.218671 
L 325.316121 178.218671 
z
" style="fill:#aeabeb;"/>
   </g>
   <g id="patch_68">
    <path clip-path="url(#p43f5a58fdc)" d="M 329.50319 224556.302652 
L 332.852845 224556.302652 
L 332.852845 178.567714 
L 329.50319 178.567714 
z
" style="fill:#b5a8eb;"/>
   </g>
   <g id="patch_69">
    <path clip-path="url(#p43f5a58fdc)" d="M 333.690259 224556.302652 
L 337.039914 224556.302652 
L 337.039914 178.918015 
L 333.690259 178.918015 
z
" style="fill:#baa6ea;"/>
   </g>
   <g id="patch_70">
    <path clip-path="url(#p43f5a58fdc)" d="M 337.877328 224556.302652 
L 341.226983 224556.302652 
L 341.226983 179.622427 
L 337.877328 179.622427 
z
" style="fill:#c0a3ea;"/>
   </g>
   <g id="patch_71">
    <path clip-path="url(#p43f5a58fdc)" d="M 342.064397 224556.302652 
L 345.414052 224556.302652 
L 345.414052 179.622427 
L 342.064397 179.622427 
z
" style="fill:#c5a0ea;"/>
   </g>
   <g id="patch_72">
    <path clip-path="url(#p43f5a58fdc)" d="M 346.251466 224556.302652 
L 349.601121 224556.302652 
L 349.601121 179.976556 
L 346.251466 179.976556 
z
" style="fill:#cb9de9;"/>
   </g>
   <g id="patch_73">
    <path clip-path="url(#p43f5a58fdc)" d="M 350.438534 224556.302652 
L 353.78819 224556.302652 
L 353.78819 180.331981 
L 350.438534 180.331981 
z
" style="fill:#d09ae9;"/>
   </g>
   <g id="patch_74">
    <path clip-path="url(#p43f5a58fdc)" d="M 354.625603 224556.302652 
L 357.975259 224556.302652 
L 357.975259 181.406118 
L 354.625603 181.406118 
z
" style="fill:#d696e8;"/>
   </g>
   <g id="patch_75">
    <path clip-path="url(#p43f5a58fdc)" d="M 358.812672 224556.302652 
L 362.162328 224556.302652 
L 362.162328 181.406118 
L 358.812672 181.406118 
z
" style="fill:#dc92e8;"/>
   </g>
   <g id="patch_76">
    <path clip-path="url(#p43f5a58fdc)" d="M 362.999741 224556.302652 
L 366.349397 224556.302652 
L 366.349397 182.128861 
L 362.999741 182.128861 
z
" style="fill:#e28ce7;"/>
   </g>
   <g id="patch_77">
    <path clip-path="url(#p43f5a58fdc)" d="M 367.18681 224556.302652 
L 370.536466 224556.302652 
L 370.536466 183.223151 
L 367.18681 183.223151 
z
" style="fill:#e689e4;"/>
   </g>
   <g id="patch_78">
    <path clip-path="url(#p43f5a58fdc)" d="M 371.373879 224556.302652 
L 374.723534 224556.302652 
L 374.723534 186.581934 
L 371.373879 186.581934 
z
" style="fill:#e78bde;"/>
   </g>
   <g id="patch_79">
    <path clip-path="url(#p43f5a58fdc)" d="M 375.560948 224556.302652 
L 378.910603 224556.302652 
L 378.910603 186.962398 
L 375.560948 186.962398 
z
" style="fill:#e78cd8;"/>
   </g>
   <g id="patch_80">
    <path clip-path="url(#p43f5a58fdc)" d="M 379.748017 224556.302652 
L 383.097672 224556.302652 
L 383.097672 189.668175 
L 379.748017 189.668175 
z
" style="fill:#e78dd3;"/>
   </g>
   <g id="patch_81">
    <path clip-path="url(#p43f5a58fdc)" d="M 383.935086 224556.302652 
L 387.284741 224556.302652 
L 387.284741 189.668175 
L 383.935086 189.668175 
z
" style="fill:#e88ece;"/>
   </g>
   <g id="patch_82">
    <path clip-path="url(#p43f5a58fdc)" d="M 388.122155 224556.302652 
L 391.47181 224556.302652 
L 391.47181 190.060937 
L 388.122155 190.060937 
z
" style="fill:#e88fc9;"/>
   </g>
   <g id="patch_83">
    <path clip-path="url(#p43f5a58fdc)" d="M 392.309224 224556.302652 
L 395.658879 224556.302652 
L 395.658879 191.648048 
L 392.309224 191.648048 
z
" style="fill:#e890c5;"/>
   </g>
   <g id="patch_84">
    <path clip-path="url(#p43f5a58fdc)" d="M 396.496293 224556.302652 
L 399.845948 224556.302652 
L 399.845948 191.648048 
L 396.496293 191.648048 
z
" style="fill:#e891c0;"/>
   </g>
   <g id="patch_85">
    <path clip-path="url(#p43f5a58fdc)" d="M 400.683362 224556.302652 
L 404.033017 224556.302652 
L 404.033017 191.648048 
L 400.683362 191.648048 
z
" style="fill:#e992bc;"/>
   </g>
   <g id="patch_86">
    <path clip-path="url(#p43f5a58fdc)" d="M 404.870431 224556.302652 
L 408.220086 224556.302652 
L 408.220086 191.648048 
L 404.870431 191.648048 
z
" style="fill:#e993b7;"/>
   </g>
   <g id="patch_87">
    <path clip-path="url(#p43f5a58fdc)" d="M 409.0575 224556.302652 
L 412.407155 224556.302652 
L 412.407155 192.048908 
L 409.0575 192.048908 
z
" style="fill:#e994b3;"/>
   </g>
   <g id="patch_88">
    <path clip-path="url(#p43f5a58fdc)" d="M 413.244569 224556.302652 
L 416.594224 224556.302652 
L 416.594224 193.261503 
L 413.244569 193.261503 
z
" style="fill:#e994ae;"/>
   </g>
   <g id="patch_89">
    <path clip-path="url(#p43f5a58fdc)" d="M 417.431638 224556.302652 
L 420.781293 224556.302652 
L 420.781293 252.454545 
L 417.431638 252.454545 
z
" style="fill:#e995aa;"/>
   </g>
   <g id="matplotlib.axis_1">
    <g id="text_1">
     <!-- Domain -->
     <g transform="translate(219.660938 274.798437)scale(0.1 -0.1)">
      <defs>
       <path d="M 1259 4147 
L 1259 519 
L 2022 519 
Q 2988 519 3436 956 
Q 3884 1394 3884 2338 
Q 3884 3275 3436 3711 
Q 2988 4147 2022 4147 
L 1259 4147 
z
M 628 4666 
L 1925 4666 
Q 3281 4666 3915 4102 
Q 4550 3538 4550 2338 
Q 4550 1131 3912 565 
Q 3275 0 1925 0 
L 628 0 
L 628 4666 
z
" id="DejaVuSans-44" transform="scale(0.015625)"/>
       <path d="M 1959 3097 
Q 1497 3097 1228 2736 
Q 959 2375 959 1747 
Q 959 1119 1226 758 
Q 1494 397 1959 397 
Q 2419 397 2687 759 
Q 2956 1122 2956 1747 
Q 2956 2369 2687 2733 
Q 2419 3097 1959 3097 
z
M 1959 3584 
Q 2709 3584 3137 3096 
Q 3566 2609 3566 1747 
Q 3566 888 3137 398 
Q 2709 -91 1959 -91 
Q 1206 -91 779 398 
Q 353 888 353 1747 
Q 353 2609 779 3096 
Q 1206 3584 1959 3584 
z
" id="DejaVuSans-6f" transform="scale(0.015625)"/>
       <path d="M 3328 2828 
Q 3544 3216 3844 3400 
Q 4144 3584 4550 3584 
Q 5097 3584 5394 3201 
Q 5691 2819 5691 2113 
L 5691 0 
L 5113 0 
L 5113 2094 
Q 5113 2597 4934 2840 
Q 4756 3084 4391 3084 
Q 3944 3084 3684 2787 
Q 3425 2491 3425 1978 
L 3425 0 
L 2847 0 
L 2847 2094 
Q 2847 2600 2669 2842 
Q 2491 3084 2119 3084 
Q 1678 3084 1418 2786 
Q 1159 2488 1159 1978 
L 1159 0 
L 581 0 
L 581 3500 
L 1159 3500 
L 1159 2956 
Q 1356 3278 1631 3431 
Q 1906 3584 2284 3584 
Q 2666 3584 2933 3390 
Q 3200 3197 3328 2828 
z
" id="DejaVuSans-6d" transform="scale(0.015625)"/>
       <path d="M 2194 1759 
Q 1497 1759 1228 1600 
Q 959 1441 959 1056 
Q 959 750 1161 570 
Q 1363 391 1709 391 
Q 2188 391 2477 730 
Q 2766 1069 2766 1631 
L 2766 1759 
L 2194 1759 
z
M 3341 1997 
L 3341 0 
L 2766 0 
L 2766 531 
Q 2569 213 2275 61 
Q 1981 -91 1556 -91 
Q 1019 -91 701 211 
Q 384 513 384 1019 
Q 384 1609 779 1909 
Q 1175 2209 1959 2209 
L 2766 2209 
L 2766 2266 
Q 2766 2663 2505 2880 
Q 2244 3097 1772 3097 
Q 1472 3097 1187 3025 
Q 903 2953 641 2809 
L 641 3341 
Q 956 3463 1253 3523 
Q 1550 3584 1831 3584 
Q 2591 3584 2966 3190 
Q 3341 2797 3341 1997 
z
" id="DejaVuSans-61" transform="scale(0.015625)"/>
       <path d="M 603 3500 
L 1178 3500 
L 1178 0 
L 603 0 
L 603 3500 
z
M 603 4863 
L 1178 4863 
L 1178 4134 
L 603 4134 
L 603 4863 
z
" id="DejaVuSans-69" transform="scale(0.015625)"/>
       <path d="M 3513 2113 
L 3513 0 
L 2938 0 
L 2938 2094 
Q 2938 2591 2744 2837 
Q 2550 3084 2163 3084 
Q 1697 3084 1428 2787 
Q 1159 2491 1159 1978 
L 1159 0 
L 581 0 
L 581 3500 
L 1159 3500 
L 1159 2956 
Q 1366 3272 1645 3428 
Q 1925 3584 2291 3584 
Q 2894 3584 3203 3211 
Q 3513 2838 3513 2113 
z
" id="DejaVuSans-6e" transform="scale(0.015625)"/>
      </defs>
      <use xlink:href="#DejaVuSans-44"/>
      <use x="77.001953" xlink:href="#DejaVuSans-6f"/>
      <use x="138.183594" xlink:href="#DejaVuSans-6d"/>
      <use x="235.595703" xlink:href="#DejaVuSans-61"/>
      <use x="296.875" xlink:href="#DejaVuSans-69"/>
      <use x="324.658203" xlink:href="#DejaVuSans-6e"/>
     </g>
    </g>
   </g>
   <g id="matplotlib.axis_2">
    <g id="ytick_1">
     <g id="line2d_1">
      <defs>
       <path d="M 0 0 
L -3.5 0 
" id="m6631af2ffd" style="stroke:#000000;stroke-width:0.8;"/>
      </defs>
      <g>
       <use style="stroke:#000000;stroke-width:0.8;" x="56.925" xlink:href="#m6631af2ffd" y="54.127881"/>
      </g>
     </g>
     <g id="text_2">
      <!-- 1000 -->
      <g transform="translate(24.475 57.9271)scale(0.1 -0.1)">
       <defs>
        <path d="M 794 531 
L 1825 531 
L 1825 4091 
L 703 3866 
L 703 4441 
L 1819 4666 
L 2450 4666 
L 2450 531 
L 3481 531 
L 3481 0 
L 794 0 
L 794 531 
z
" id="DejaVuSans-31" transform="scale(0.015625)"/>
        <path d="M 2034 4250 
Q 1547 4250 1301 3770 
Q 1056 3291 1056 2328 
Q 1056 1369 1301 889 
Q 1547 409 2034 409 
Q 2525 409 2770 889 
Q 3016 1369 3016 2328 
Q 3016 3291 2770 3770 
Q 2525 4250 2034 4250 
z
M 2034 4750 
Q 2819 4750 3233 4129 
Q 3647 3509 3647 2328 
Q 3647 1150 3233 529 
Q 2819 -91 2034 -91 
Q 1250 -91 836 529 
Q 422 1150 422 2328 
Q 422 3509 836 4129 
Q 1250 4750 2034 4750 
z
" id="DejaVuSans-30" transform="scale(0.015625)"/>
       </defs>
       <use xlink:href="#DejaVuSans-31"/>
       <use x="63.623047" xlink:href="#DejaVuSans-30"/>
       <use x="127.246094" xlink:href="#DejaVuSans-30"/>
       <use x="190.869141" xlink:href="#DejaVuSans-30"/>
      </g>
     </g>
    </g>
    <g id="ytick_2">
     <g id="line2d_2">
      <defs>
       <path d="M 0 0 
L -2 0 
" id="m5ed62e506d" style="stroke:#000000;stroke-width:0.6;"/>
      </defs>
      <g>
       <use style="stroke:#000000;stroke-width:0.6;" x="56.925" xlink:href="#m5ed62e506d" y="210.578814"/>
      </g>
     </g>
     <g id="text_3">
      <!-- 200 -->
      <g transform="translate(32.4375 214.378033)scale(0.1 -0.1)">
       <defs>
        <path d="M 1228 531 
L 3431 531 
L 3431 0 
L 469 0 
L 469 531 
Q 828 903 1448 1529 
Q 2069 2156 2228 2338 
Q 2531 2678 2651 2914 
Q 2772 3150 2772 3378 
Q 2772 3750 2511 3984 
Q 2250 4219 1831 4219 
Q 1534 4219 1204 4116 
Q 875 4013 500 3803 
L 500 4441 
Q 881 4594 1212 4672 
Q 1544 4750 1819 4750 
Q 2544 4750 2975 4387 
Q 3406 4025 3406 3419 
Q 3406 3131 3298 2873 
Q 3191 2616 2906 2266 
Q 2828 2175 2409 1742 
Q 1991 1309 1228 531 
z
" id="DejaVuSans-32" transform="scale(0.015625)"/>
       </defs>
       <use xlink:href="#DejaVuSans-32"/>
       <use x="63.623047" xlink:href="#DejaVuSans-30"/>
       <use x="127.246094" xlink:href="#DejaVuSans-30"/>
      </g>
     </g>
    </g>
    <g id="ytick_3">
     <g id="line2d_3">
      <g>
       <use style="stroke:#000000;stroke-width:0.6;" x="56.925" xlink:href="#m5ed62e506d" y="171.164188"/>
      </g>
     </g>
     <g id="text_4">
      <!-- 300 -->
      <g transform="translate(32.4375 174.963406)scale(0.1 -0.1)">
       <defs>
        <path d="M 2597 2516 
Q 3050 2419 3304 2112 
Q 3559 1806 3559 1356 
Q 3559 666 3084 287 
Q 2609 -91 1734 -91 
Q 1441 -91 1130 -33 
Q 819 25 488 141 
L 488 750 
Q 750 597 1062 519 
Q 1375 441 1716 441 
Q 2309 441 2620 675 
Q 2931 909 2931 1356 
Q 2931 1769 2642 2001 
Q 2353 2234 1838 2234 
L 1294 2234 
L 1294 2753 
L 1863 2753 
Q 2328 2753 2575 2939 
Q 2822 3125 2822 3475 
Q 2822 3834 2567 4026 
Q 2313 4219 1838 4219 
Q 1578 4219 1281 4162 
Q 984 4106 628 3988 
L 628 4550 
Q 988 4650 1302 4700 
Q 1616 4750 1894 4750 
Q 2613 4750 3031 4423 
Q 3450 4097 3450 3541 
Q 3450 3153 3228 2886 
Q 3006 2619 2597 2516 
z
" id="DejaVuSans-33" transform="scale(0.015625)"/>
       </defs>
       <use xlink:href="#DejaVuSans-33"/>
       <use x="63.623047" xlink:href="#DejaVuSans-30"/>
       <use x="127.246094" xlink:href="#DejaVuSans-30"/>
      </g>
     </g>
    </g>
    <g id="ytick_4">
     <g id="line2d_4">
      <g>
       <use style="stroke:#000000;stroke-width:0.6;" x="56.925" xlink:href="#m5ed62e506d" y="143.199065"/>
      </g>
     </g>
     <g id="text_5">
      <!-- 400 -->
      <g transform="translate(32.4375 146.998284)scale(0.1 -0.1)">
       <defs>
        <path d="M 2419 4116 
L 825 1625 
L 2419 1625 
L 2419 4116 
z
M 2253 4666 
L 3047 4666 
L 3047 1625 
L 3713 1625 
L 3713 1100 
L 3047 1100 
L 3047 0 
L 2419 0 
L 2419 1100 
L 313 1100 
L 313 1709 
L 2253 4666 
z
" id="DejaVuSans-34" transform="scale(0.015625)"/>
       </defs>
       <use xlink:href="#DejaVuSans-34"/>
       <use x="63.623047" xlink:href="#DejaVuSans-30"/>
       <use x="127.246094" xlink:href="#DejaVuSans-30"/>
      </g>
     </g>
    </g>
    <g id="ytick_5">
     <g id="line2d_5">
      <g>
       <use style="stroke:#000000;stroke-width:0.6;" x="56.925" xlink:href="#m5ed62e506d" y="121.507631"/>
      </g>
     </g>
     <g id="text_6">
      <!-- 500 -->
      <g transform="translate(32.4375 125.306849)scale(0.1 -0.1)">
       <defs>
        <path d="M 691 4666 
L 3169 4666 
L 3169 4134 
L 1269 4134 
L 1269 2991 
Q 1406 3038 1543 3061 
Q 1681 3084 1819 3084 
Q 2600 3084 3056 2656 
Q 3513 2228 3513 1497 
Q 3513 744 3044 326 
Q 2575 -91 1722 -91 
Q 1428 -91 1123 -41 
Q 819 9 494 109 
L 494 744 
Q 775 591 1075 516 
Q 1375 441 1709 441 
Q 2250 441 2565 725 
Q 2881 1009 2881 1497 
Q 2881 1984 2565 2268 
Q 2250 2553 1709 2553 
Q 1456 2553 1204 2497 
Q 953 2441 691 2322 
L 691 4666 
z
" id="DejaVuSans-35" transform="scale(0.015625)"/>
       </defs>
       <use xlink:href="#DejaVuSans-35"/>
       <use x="63.623047" xlink:href="#DejaVuSans-30"/>
       <use x="127.246094" xlink:href="#DejaVuSans-30"/>
      </g>
     </g>
    </g>
    <g id="ytick_6">
     <g id="line2d_6">
      <g>
       <use style="stroke:#000000;stroke-width:0.6;" x="56.925" xlink:href="#m5ed62e506d" y="103.784438"/>
      </g>
     </g>
     <g id="text_7">
      <!-- 600 -->
      <g transform="translate(32.4375 107.583657)scale(0.1 -0.1)">
       <defs>
        <path d="M 2113 2584 
Q 1688 2584 1439 2293 
Q 1191 2003 1191 1497 
Q 1191 994 1439 701 
Q 1688 409 2113 409 
Q 2538 409 2786 701 
Q 3034 994 3034 1497 
Q 3034 2003 2786 2293 
Q 2538 2584 2113 2584 
z
M 3366 4563 
L 3366 3988 
Q 3128 4100 2886 4159 
Q 2644 4219 2406 4219 
Q 1781 4219 1451 3797 
Q 1122 3375 1075 2522 
Q 1259 2794 1537 2939 
Q 1816 3084 2150 3084 
Q 2853 3084 3261 2657 
Q 3669 2231 3669 1497 
Q 3669 778 3244 343 
Q 2819 -91 2113 -91 
Q 1303 -91 875 529 
Q 447 1150 447 2328 
Q 447 3434 972 4092 
Q 1497 4750 2381 4750 
Q 2619 4750 2861 4703 
Q 3103 4656 3366 4563 
z
" id="DejaVuSans-36" transform="scale(0.015625)"/>
       </defs>
       <use xlink:href="#DejaVuSans-36"/>
       <use x="63.623047" xlink:href="#DejaVuSans-30"/>
       <use x="127.246094" xlink:href="#DejaVuSans-30"/>
      </g>
     </g>
    </g>
    <g id="ytick_7">
     <g id="line2d_7">
      <g>
       <use style="stroke:#000000;stroke-width:0.6;" x="56.925" xlink:href="#m5ed62e506d" y="88.799693"/>
      </g>
     </g>
     <g id="text_8">
      <!-- 700 -->
      <g transform="translate(32.4375 92.598911)scale(0.1 -0.1)">
       <defs>
        <path d="M 525 4666 
L 3525 4666 
L 3525 4397 
L 1831 0 
L 1172 0 
L 2766 4134 
L 525 4134 
L 525 4666 
z
" id="DejaVuSans-37" transform="scale(0.015625)"/>
       </defs>
       <use xlink:href="#DejaVuSans-37"/>
       <use x="63.623047" xlink:href="#DejaVuSans-30"/>
       <use x="127.246094" xlink:href="#DejaVuSans-30"/>
      </g>
     </g>
    </g>
    <g id="ytick_8">
     <g id="line2d_8">
      <g>
       <use style="stroke:#000000;stroke-width:0.6;" x="56.925" xlink:href="#m5ed62e506d" y="75.819315"/>
      </g>
     </g>
     <g id="text_9">
      <!-- 800 -->
      <g transform="translate(32.4375 79.618534)scale(0.1 -0.1)">
       <defs>
        <path d="M 2034 2216 
Q 1584 2216 1326 1975 
Q 1069 1734 1069 1313 
Q 1069 891 1326 650 
Q 1584 409 2034 409 
Q 2484 409 2743 651 
Q 3003 894 3003 1313 
Q 3003 1734 2745 1975 
Q 2488 2216 2034 2216 
z
M 1403 2484 
Q 997 2584 770 2862 
Q 544 3141 544 3541 
Q 544 4100 942 4425 
Q 1341 4750 2034 4750 
Q 2731 4750 3128 4425 
Q 3525 4100 3525 3541 
Q 3525 3141 3298 2862 
Q 3072 2584 2669 2484 
Q 3125 2378 3379 2068 
Q 3634 1759 3634 1313 
Q 3634 634 3220 271 
Q 2806 -91 2034 -91 
Q 1263 -91 848 271 
Q 434 634 434 1313 
Q 434 1759 690 2068 
Q 947 2378 1403 2484 
z
M 1172 3481 
Q 1172 3119 1398 2916 
Q 1625 2713 2034 2713 
Q 2441 2713 2670 2916 
Q 2900 3119 2900 3481 
Q 2900 3844 2670 4047 
Q 2441 4250 2034 4250 
Q 1625 4250 1398 4047 
Q 1172 3844 1172 3481 
z
" id="DejaVuSans-38" transform="scale(0.015625)"/>
       </defs>
       <use xlink:href="#DejaVuSans-38"/>
       <use x="63.623047" xlink:href="#DejaVuSans-30"/>
       <use x="127.246094" xlink:href="#DejaVuSans-30"/>
      </g>
     </g>
    </g>
    <g id="ytick_9">
     <g id="line2d_9">
      <g>
       <use style="stroke:#000000;stroke-width:0.6;" x="56.925" xlink:href="#m5ed62e506d" y="64.369811"/>
      </g>
     </g>
     <g id="text_10">
      <!-- 900 -->
      <g transform="translate(32.4375 68.16903)scale(0.1 -0.1)">
       <defs>
        <path d="M 703 97 
L 703 672 
Q 941 559 1184 500 
Q 1428 441 1663 441 
Q 2288 441 2617 861 
Q 2947 1281 2994 2138 
Q 2813 1869 2534 1725 
Q 2256 1581 1919 1581 
Q 1219 1581 811 2004 
Q 403 2428 403 3163 
Q 403 3881 828 4315 
Q 1253 4750 1959 4750 
Q 2769 4750 3195 4129 
Q 3622 3509 3622 2328 
Q 3622 1225 3098 567 
Q 2575 -91 1691 -91 
Q 1453 -91 1209 -44 
Q 966 3 703 97 
z
M 1959 2075 
Q 2384 2075 2632 2365 
Q 2881 2656 2881 3163 
Q 2881 3666 2632 3958 
Q 2384 4250 1959 4250 
Q 1534 4250 1286 3958 
Q 1038 3666 1038 3163 
Q 1038 2656 1286 2365 
Q 1534 2075 1959 2075 
z
" id="DejaVuSans-39" transform="scale(0.015625)"/>
       </defs>
       <use xlink:href="#DejaVuSans-39"/>
       <use x="63.623047" xlink:href="#DejaVuSans-30"/>
       <use x="127.246094" xlink:href="#DejaVuSans-30"/>
      </g>
     </g>
    </g>
    <g id="text_11">
     <!-- Number of unique users -->
     <g transform="translate(18.395312 205.328906)rotate(-90)scale(0.1 -0.1)">
      <defs>
       <path d="M 628 4666 
L 1478 4666 
L 3547 763 
L 3547 4666 
L 4159 4666 
L 4159 0 
L 3309 0 
L 1241 3903 
L 1241 0 
L 628 0 
L 628 4666 
z
" id="DejaVuSans-4e" transform="scale(0.015625)"/>
       <path d="M 544 1381 
L 544 3500 
L 1119 3500 
L 1119 1403 
Q 1119 906 1312 657 
Q 1506 409 1894 409 
Q 2359 409 2629 706 
Q 2900 1003 2900 1516 
L 2900 3500 
L 3475 3500 
L 3475 0 
L 2900 0 
L 2900 538 
Q 2691 219 2414 64 
Q 2138 -91 1772 -91 
Q 1169 -91 856 284 
Q 544 659 544 1381 
z
M 1991 3584 
L 1991 3584 
z
" id="DejaVuSans-75" transform="scale(0.015625)"/>
       <path d="M 3116 1747 
Q 3116 2381 2855 2742 
Q 2594 3103 2138 3103 
Q 1681 3103 1420 2742 
Q 1159 2381 1159 1747 
Q 1159 1113 1420 752 
Q 1681 391 2138 391 
Q 2594 391 2855 752 
Q 3116 1113 3116 1747 
z
M 1159 2969 
Q 1341 3281 1617 3432 
Q 1894 3584 2278 3584 
Q 2916 3584 3314 3078 
Q 3713 2572 3713 1747 
Q 3713 922 3314 415 
Q 2916 -91 2278 -91 
Q 1894 -91 1617 61 
Q 1341 213 1159 525 
L 1159 0 
L 581 0 
L 581 4863 
L 1159 4863 
L 1159 2969 
z
" id="DejaVuSans-62" transform="scale(0.015625)"/>
       <path d="M 3597 1894 
L 3597 1613 
L 953 1613 
Q 991 1019 1311 708 
Q 1631 397 2203 397 
Q 2534 397 2845 478 
Q 3156 559 3463 722 
L 3463 178 
Q 3153 47 2828 -22 
Q 2503 -91 2169 -91 
Q 1331 -91 842 396 
Q 353 884 353 1716 
Q 353 2575 817 3079 
Q 1281 3584 2069 3584 
Q 2775 3584 3186 3129 
Q 3597 2675 3597 1894 
z
M 3022 2063 
Q 3016 2534 2758 2815 
Q 2500 3097 2075 3097 
Q 1594 3097 1305 2825 
Q 1016 2553 972 2059 
L 3022 2063 
z
" id="DejaVuSans-65" transform="scale(0.015625)"/>
       <path d="M 2631 2963 
Q 2534 3019 2420 3045 
Q 2306 3072 2169 3072 
Q 1681 3072 1420 2755 
Q 1159 2438 1159 1844 
L 1159 0 
L 581 0 
L 581 3500 
L 1159 3500 
L 1159 2956 
Q 1341 3275 1631 3429 
Q 1922 3584 2338 3584 
Q 2397 3584 2469 3576 
Q 2541 3569 2628 3553 
L 2631 2963 
z
" id="DejaVuSans-72" transform="scale(0.015625)"/>
       <path id="DejaVuSans-20" transform="scale(0.015625)"/>
       <path d="M 2375 4863 
L 2375 4384 
L 1825 4384 
Q 1516 4384 1395 4259 
Q 1275 4134 1275 3809 
L 1275 3500 
L 2222 3500 
L 2222 3053 
L 1275 3053 
L 1275 0 
L 697 0 
L 697 3053 
L 147 3053 
L 147 3500 
L 697 3500 
L 697 3744 
Q 697 4328 969 4595 
Q 1241 4863 1831 4863 
L 2375 4863 
z
" id="DejaVuSans-66" transform="scale(0.015625)"/>
       <path d="M 947 1747 
Q 947 1113 1208 752 
Q 1469 391 1925 391 
Q 2381 391 2643 752 
Q 2906 1113 2906 1747 
Q 2906 2381 2643 2742 
Q 2381 3103 1925 3103 
Q 1469 3103 1208 2742 
Q 947 2381 947 1747 
z
M 2906 525 
Q 2725 213 2448 61 
Q 2172 -91 1784 -91 
Q 1150 -91 751 415 
Q 353 922 353 1747 
Q 353 2572 751 3078 
Q 1150 3584 1784 3584 
Q 2172 3584 2448 3432 
Q 2725 3281 2906 2969 
L 2906 3500 
L 3481 3500 
L 3481 -1331 
L 2906 -1331 
L 2906 525 
z
" id="DejaVuSans-71" transform="scale(0.015625)"/>
       <path d="M 2834 3397 
L 2834 2853 
Q 2591 2978 2328 3040 
Q 2066 3103 1784 3103 
Q 1356 3103 1142 2972 
Q 928 2841 928 2578 
Q 928 2378 1081 2264 
Q 1234 2150 1697 2047 
L 1894 2003 
Q 2506 1872 2764 1633 
Q 3022 1394 3022 966 
Q 3022 478 2636 193 
Q 2250 -91 1575 -91 
Q 1294 -91 989 -36 
Q 684 19 347 128 
L 347 722 
Q 666 556 975 473 
Q 1284 391 1588 391 
Q 1994 391 2212 530 
Q 2431 669 2431 922 
Q 2431 1156 2273 1281 
Q 2116 1406 1581 1522 
L 1381 1569 
Q 847 1681 609 1914 
Q 372 2147 372 2553 
Q 372 3047 722 3315 
Q 1072 3584 1716 3584 
Q 2034 3584 2315 3537 
Q 2597 3491 2834 3397 
z
" id="DejaVuSans-73" transform="scale(0.015625)"/>
      </defs>
      <use xlink:href="#DejaVuSans-4e"/>
      <use x="74.804688" xlink:href="#DejaVuSans-75"/>
      <use x="138.183594" xlink:href="#DejaVuSans-6d"/>
      <use x="235.595703" xlink:href="#DejaVuSans-62"/>
      <use x="299.072266" xlink:href="#DejaVuSans-65"/>
      <use x="360.595703" xlink:href="#DejaVuSans-72"/>
      <use x="401.708984" xlink:href="#DejaVuSans-20"/>
      <use x="433.496094" xlink:href="#DejaVuSans-6f"/>
      <use x="494.677734" xlink:href="#DejaVuSans-66"/>
      <use x="529.882812" xlink:href="#DejaVuSans-20"/>
      <use x="561.669922" xlink:href="#DejaVuSans-75"/>
      <use x="625.048828" xlink:href="#DejaVuSans-6e"/>
      <use x="688.427734" xlink:href="#DejaVuSans-69"/>
      <use x="716.210938" xlink:href="#DejaVuSans-71"/>
      <use x="779.6875" xlink:href="#DejaVuSans-75"/>
      <use x="843.066406" xlink:href="#DejaVuSans-65"/>
      <use x="904.589844" xlink:href="#DejaVuSans-20"/>
      <use x="936.376953" xlink:href="#DejaVuSans-75"/>
      <use x="999.755859" xlink:href="#DejaVuSans-73"/>
      <use x="1051.855469" xlink:href="#DejaVuSans-65"/>
      <use x="1113.378906" xlink:href="#DejaVuSans-72"/>
      <use x="1154.492188" xlink:href="#DejaVuSans-73"/>
     </g>
    </g>
   </g>
   <g id="line2d_10">
    <path clip-path="url(#p43f5a58fdc)" style="fill:none;stroke:#424242;stroke-linecap:square;stroke-width:2.7;"/>
   </g>
   <g id="line2d_11">
    <path clip-path="url(#p43f5a58fdc)" style="fill:none;stroke:#424242;stroke-linecap:square;stroke-width:2.7;"/>
   </g>
   <g id="line2d_12">
    <path clip-path="url(#p43f5a58fdc)" style="fill:none;stroke:#424242;stroke-linecap:square;stroke-width:2.7;"/>
   </g>
   <g id="line2d_13">
    <path clip-path="url(#p43f5a58fdc)" style="fill:none;stroke:#424242;stroke-linecap:square;stroke-width:2.7;"/>
   </g>
   <g id="line2d_14">
    <path clip-path="url(#p43f5a58fdc)" style="fill:none;stroke:#424242;stroke-linecap:square;stroke-width:2.7;"/>
   </g>
   <g id="line2d_15">
    <path clip-path="url(#p43f5a58fdc)" style="fill:none;stroke:#424242;stroke-linecap:square;stroke-width:2.7;"/>
   </g>
   <g id="line2d_16">
    <path clip-path="url(#p43f5a58fdc)" style="fill:none;stroke:#424242;stroke-linecap:square;stroke-width:2.7;"/>
   </g>
   <g id="line2d_17">
    <path clip-path="url(#p43f5a58fdc)" style="fill:none;stroke:#424242;stroke-linecap:square;stroke-width:2.7;"/>
   </g>
   <g id="line2d_18">
    <path clip-path="url(#p43f5a58fdc)" style="fill:none;stroke:#424242;stroke-linecap:square;stroke-width:2.7;"/>
   </g>
   <g id="line2d_19">
    <path clip-path="url(#p43f5a58fdc)" style="fill:none;stroke:#424242;stroke-linecap:square;stroke-width:2.7;"/>
   </g>
   <g id="line2d_20">
    <path clip-path="url(#p43f5a58fdc)" style="fill:none;stroke:#424242;stroke-linecap:square;stroke-width:2.7;"/>
   </g>
   <g id="line2d_21">
    <path clip-path="url(#p43f5a58fdc)" style="fill:none;stroke:#424242;stroke-linecap:square;stroke-width:2.7;"/>
   </g>
   <g id="line2d_22">
    <path clip-path="url(#p43f5a58fdc)" style="fill:none;stroke:#424242;stroke-linecap:square;stroke-width:2.7;"/>
   </g>
   <g id="line2d_23">
    <path clip-path="url(#p43f5a58fdc)" style="fill:none;stroke:#424242;stroke-linecap:square;stroke-width:2.7;"/>
   </g>
   <g id="line2d_24">
    <path clip-path="url(#p43f5a58fdc)" style="fill:none;stroke:#424242;stroke-linecap:square;stroke-width:2.7;"/>
   </g>
   <g id="line2d_25">
    <path clip-path="url(#p43f5a58fdc)" style="fill:none;stroke:#424242;stroke-linecap:square;stroke-width:2.7;"/>
   </g>
   <g id="line2d_26">
    <path clip-path="url(#p43f5a58fdc)" style="fill:none;stroke:#424242;stroke-linecap:square;stroke-width:2.7;"/>
   </g>
   <g id="line2d_27">
    <path clip-path="url(#p43f5a58fdc)" style="fill:none;stroke:#424242;stroke-linecap:square;stroke-width:2.7;"/>
   </g>
   <g id="line2d_28">
    <path clip-path="url(#p43f5a58fdc)" style="fill:none;stroke:#424242;stroke-linecap:square;stroke-width:2.7;"/>
   </g>
   <g id="line2d_29">
    <path clip-path="url(#p43f5a58fdc)" style="fill:none;stroke:#424242;stroke-linecap:square;stroke-width:2.7;"/>
   </g>
   <g id="line2d_30">
    <path clip-path="url(#p43f5a58fdc)" style="fill:none;stroke:#424242;stroke-linecap:square;stroke-width:2.7;"/>
   </g>
   <g id="line2d_31">
    <path clip-path="url(#p43f5a58fdc)" style="fill:none;stroke:#424242;stroke-linecap:square;stroke-width:2.7;"/>
   </g>
   <g id="line2d_32">
    <path clip-path="url(#p43f5a58fdc)" style="fill:none;stroke:#424242;stroke-linecap:square;stroke-width:2.7;"/>
   </g>
   <g id="line2d_33">
    <path clip-path="url(#p43f5a58fdc)" style="fill:none;stroke:#424242;stroke-linecap:square;stroke-width:2.7;"/>
   </g>
   <g id="line2d_34">
    <path clip-path="url(#p43f5a58fdc)" style="fill:none;stroke:#424242;stroke-linecap:square;stroke-width:2.7;"/>
   </g>
   <g id="line2d_35">
    <path clip-path="url(#p43f5a58fdc)" style="fill:none;stroke:#424242;stroke-linecap:square;stroke-width:2.7;"/>
   </g>
   <g id="line2d_36">
    <path clip-path="url(#p43f5a58fdc)" style="fill:none;stroke:#424242;stroke-linecap:square;stroke-width:2.7;"/>
   </g>
   <g id="line2d_37">
    <path clip-path="url(#p43f5a58fdc)" style="fill:none;stroke:#424242;stroke-linecap:square;stroke-width:2.7;"/>
   </g>
   <g id="line2d_38">
    <path clip-path="url(#p43f5a58fdc)" style="fill:none;stroke:#424242;stroke-linecap:square;stroke-width:2.7;"/>
   </g>
   <g id="line2d_39">
    <path clip-path="url(#p43f5a58fdc)" style="fill:none;stroke:#424242;stroke-linecap:square;stroke-width:2.7;"/>
   </g>
   <g id="line2d_40">
    <path clip-path="url(#p43f5a58fdc)" style="fill:none;stroke:#424242;stroke-linecap:square;stroke-width:2.7;"/>
   </g>
   <g id="line2d_41">
    <path clip-path="url(#p43f5a58fdc)" style="fill:none;stroke:#424242;stroke-linecap:square;stroke-width:2.7;"/>
   </g>
   <g id="line2d_42">
    <path clip-path="url(#p43f5a58fdc)" style="fill:none;stroke:#424242;stroke-linecap:square;stroke-width:2.7;"/>
   </g>
   <g id="line2d_43">
    <path clip-path="url(#p43f5a58fdc)" style="fill:none;stroke:#424242;stroke-linecap:square;stroke-width:2.7;"/>
   </g>
   <g id="line2d_44">
    <path clip-path="url(#p43f5a58fdc)" style="fill:none;stroke:#424242;stroke-linecap:square;stroke-width:2.7;"/>
   </g>
   <g id="line2d_45">
    <path clip-path="url(#p43f5a58fdc)" style="fill:none;stroke:#424242;stroke-linecap:square;stroke-width:2.7;"/>
   </g>
   <g id="line2d_46">
    <path clip-path="url(#p43f5a58fdc)" style="fill:none;stroke:#424242;stroke-linecap:square;stroke-width:2.7;"/>
   </g>
   <g id="line2d_47">
    <path clip-path="url(#p43f5a58fdc)" style="fill:none;stroke:#424242;stroke-linecap:square;stroke-width:2.7;"/>
   </g>
   <g id="line2d_48">
    <path clip-path="url(#p43f5a58fdc)" style="fill:none;stroke:#424242;stroke-linecap:square;stroke-width:2.7;"/>
   </g>
   <g id="line2d_49">
    <path clip-path="url(#p43f5a58fdc)" style="fill:none;stroke:#424242;stroke-linecap:square;stroke-width:2.7;"/>
   </g>
   <g id="line2d_50">
    <path clip-path="url(#p43f5a58fdc)" style="fill:none;stroke:#424242;stroke-linecap:square;stroke-width:2.7;"/>
   </g>
   <g id="line2d_51">
    <path clip-path="url(#p43f5a58fdc)" style="fill:none;stroke:#424242;stroke-linecap:square;stroke-width:2.7;"/>
   </g>
   <g id="line2d_52">
    <path clip-path="url(#p43f5a58fdc)" style="fill:none;stroke:#424242;stroke-linecap:square;stroke-width:2.7;"/>
   </g>
   <g id="line2d_53">
    <path clip-path="url(#p43f5a58fdc)" style="fill:none;stroke:#424242;stroke-linecap:square;stroke-width:2.7;"/>
   </g>
   <g id="line2d_54">
    <path clip-path="url(#p43f5a58fdc)" style="fill:none;stroke:#424242;stroke-linecap:square;stroke-width:2.7;"/>
   </g>
   <g id="line2d_55">
    <path clip-path="url(#p43f5a58fdc)" style="fill:none;stroke:#424242;stroke-linecap:square;stroke-width:2.7;"/>
   </g>
   <g id="line2d_56">
    <path clip-path="url(#p43f5a58fdc)" style="fill:none;stroke:#424242;stroke-linecap:square;stroke-width:2.7;"/>
   </g>
   <g id="line2d_57">
    <path clip-path="url(#p43f5a58fdc)" style="fill:none;stroke:#424242;stroke-linecap:square;stroke-width:2.7;"/>
   </g>
   <g id="line2d_58">
    <path clip-path="url(#p43f5a58fdc)" style="fill:none;stroke:#424242;stroke-linecap:square;stroke-width:2.7;"/>
   </g>
   <g id="line2d_59">
    <path clip-path="url(#p43f5a58fdc)" style="fill:none;stroke:#424242;stroke-linecap:square;stroke-width:2.7;"/>
   </g>
   <g id="line2d_60">
    <path clip-path="url(#p43f5a58fdc)" style="fill:none;stroke:#424242;stroke-linecap:square;stroke-width:2.7;"/>
   </g>
   <g id="line2d_61">
    <path clip-path="url(#p43f5a58fdc)" style="fill:none;stroke:#424242;stroke-linecap:square;stroke-width:2.7;"/>
   </g>
   <g id="line2d_62">
    <path clip-path="url(#p43f5a58fdc)" style="fill:none;stroke:#424242;stroke-linecap:square;stroke-width:2.7;"/>
   </g>
   <g id="line2d_63">
    <path clip-path="url(#p43f5a58fdc)" style="fill:none;stroke:#424242;stroke-linecap:square;stroke-width:2.7;"/>
   </g>
   <g id="line2d_64">
    <path clip-path="url(#p43f5a58fdc)" style="fill:none;stroke:#424242;stroke-linecap:square;stroke-width:2.7;"/>
   </g>
   <g id="line2d_65">
    <path clip-path="url(#p43f5a58fdc)" style="fill:none;stroke:#424242;stroke-linecap:square;stroke-width:2.7;"/>
   </g>
   <g id="line2d_66">
    <path clip-path="url(#p43f5a58fdc)" style="fill:none;stroke:#424242;stroke-linecap:square;stroke-width:2.7;"/>
   </g>
   <g id="line2d_67">
    <path clip-path="url(#p43f5a58fdc)" style="fill:none;stroke:#424242;stroke-linecap:square;stroke-width:2.7;"/>
   </g>
   <g id="line2d_68">
    <path clip-path="url(#p43f5a58fdc)" style="fill:none;stroke:#424242;stroke-linecap:square;stroke-width:2.7;"/>
   </g>
   <g id="line2d_69">
    <path clip-path="url(#p43f5a58fdc)" style="fill:none;stroke:#424242;stroke-linecap:square;stroke-width:2.7;"/>
   </g>
   <g id="line2d_70">
    <path clip-path="url(#p43f5a58fdc)" style="fill:none;stroke:#424242;stroke-linecap:square;stroke-width:2.7;"/>
   </g>
   <g id="line2d_71">
    <path clip-path="url(#p43f5a58fdc)" style="fill:none;stroke:#424242;stroke-linecap:square;stroke-width:2.7;"/>
   </g>
   <g id="line2d_72">
    <path clip-path="url(#p43f5a58fdc)" style="fill:none;stroke:#424242;stroke-linecap:square;stroke-width:2.7;"/>
   </g>
   <g id="line2d_73">
    <path clip-path="url(#p43f5a58fdc)" style="fill:none;stroke:#424242;stroke-linecap:square;stroke-width:2.7;"/>
   </g>
   <g id="line2d_74">
    <path clip-path="url(#p43f5a58fdc)" style="fill:none;stroke:#424242;stroke-linecap:square;stroke-width:2.7;"/>
   </g>
   <g id="line2d_75">
    <path clip-path="url(#p43f5a58fdc)" style="fill:none;stroke:#424242;stroke-linecap:square;stroke-width:2.7;"/>
   </g>
   <g id="line2d_76">
    <path clip-path="url(#p43f5a58fdc)" style="fill:none;stroke:#424242;stroke-linecap:square;stroke-width:2.7;"/>
   </g>
   <g id="line2d_77">
    <path clip-path="url(#p43f5a58fdc)" style="fill:none;stroke:#424242;stroke-linecap:square;stroke-width:2.7;"/>
   </g>
   <g id="line2d_78">
    <path clip-path="url(#p43f5a58fdc)" style="fill:none;stroke:#424242;stroke-linecap:square;stroke-width:2.7;"/>
   </g>
   <g id="line2d_79">
    <path clip-path="url(#p43f5a58fdc)" style="fill:none;stroke:#424242;stroke-linecap:square;stroke-width:2.7;"/>
   </g>
   <g id="line2d_80">
    <path clip-path="url(#p43f5a58fdc)" style="fill:none;stroke:#424242;stroke-linecap:square;stroke-width:2.7;"/>
   </g>
   <g id="line2d_81">
    <path clip-path="url(#p43f5a58fdc)" style="fill:none;stroke:#424242;stroke-linecap:square;stroke-width:2.7;"/>
   </g>
   <g id="line2d_82">
    <path clip-path="url(#p43f5a58fdc)" style="fill:none;stroke:#424242;stroke-linecap:square;stroke-width:2.7;"/>
   </g>
   <g id="line2d_83">
    <path clip-path="url(#p43f5a58fdc)" style="fill:none;stroke:#424242;stroke-linecap:square;stroke-width:2.7;"/>
   </g>
   <g id="line2d_84">
    <path clip-path="url(#p43f5a58fdc)" style="fill:none;stroke:#424242;stroke-linecap:square;stroke-width:2.7;"/>
   </g>
   <g id="line2d_85">
    <path clip-path="url(#p43f5a58fdc)" style="fill:none;stroke:#424242;stroke-linecap:square;stroke-width:2.7;"/>
   </g>
   <g id="line2d_86">
    <path clip-path="url(#p43f5a58fdc)" style="fill:none;stroke:#424242;stroke-linecap:square;stroke-width:2.7;"/>
   </g>
   <g id="line2d_87">
    <path clip-path="url(#p43f5a58fdc)" style="fill:none;stroke:#424242;stroke-linecap:square;stroke-width:2.7;"/>
   </g>
   <g id="line2d_88">
    <path clip-path="url(#p43f5a58fdc)" style="fill:none;stroke:#424242;stroke-linecap:square;stroke-width:2.7;"/>
   </g>
   <g id="line2d_89">
    <path clip-path="url(#p43f5a58fdc)" style="fill:none;stroke:#424242;stroke-linecap:square;stroke-width:2.7;"/>
   </g>
   <g id="line2d_90">
    <path clip-path="url(#p43f5a58fdc)" style="fill:none;stroke:#424242;stroke-linecap:square;stroke-width:2.7;"/>
   </g>
   <g id="line2d_91">
    <path clip-path="url(#p43f5a58fdc)" style="fill:none;stroke:#424242;stroke-linecap:square;stroke-width:2.7;"/>
   </g>
   <g id="line2d_92">
    <path clip-path="url(#p43f5a58fdc)" style="fill:none;stroke:#424242;stroke-linecap:square;stroke-width:2.7;"/>
   </g>
   <g id="line2d_93">
    <path clip-path="url(#p43f5a58fdc)" style="fill:none;stroke:#424242;stroke-linecap:square;stroke-width:2.7;"/>
   </g>
   <g id="line2d_94">
    <path clip-path="url(#p43f5a58fdc)" style="fill:none;stroke:#424242;stroke-linecap:square;stroke-width:2.7;"/>
   </g>
   <g id="line2d_95">
    <path clip-path="url(#p43f5a58fdc)" style="fill:none;stroke:#424242;stroke-linecap:square;stroke-width:2.7;"/>
   </g>
   <g id="line2d_96">
    <path clip-path="url(#p43f5a58fdc)" style="fill:none;stroke:#424242;stroke-linecap:square;stroke-width:2.7;"/>
   </g>
   <g id="patch_90">
    <path d="M 56.925 263.2 
L 56.925 26.8 
" style="fill:none;stroke:#000000;stroke-linecap:square;stroke-linejoin:miter;stroke-width:0.8;"/>
   </g>
   <g id="patch_91">
    <path d="M 421.2 263.2 
L 421.2 26.8 
" style="fill:none;stroke:#000000;stroke-linecap:square;stroke-linejoin:miter;stroke-width:0.8;"/>
   </g>
   <g id="patch_92">
    <path d="M 56.925 263.2 
L 421.2 263.2 
" style="fill:none;stroke:#000000;stroke-linecap:square;stroke-linejoin:miter;stroke-width:0.8;"/>
   </g>
   <g id="patch_93">
    <path d="M 56.925 26.8 
L 421.2 26.8 
" style="fill:none;stroke:#000000;stroke-linecap:square;stroke-linejoin:miter;stroke-width:0.8;"/>
   </g>
   <g id="text_12">
    <!-- Unique user counts for top 87 domains -->
    <g transform="translate(122.003438 20.8)scale(0.12 -0.12)">
     <defs>
      <path d="M 556 4666 
L 1191 4666 
L 1191 1831 
Q 1191 1081 1462 751 
Q 1734 422 2344 422 
Q 2950 422 3222 751 
Q 3494 1081 3494 1831 
L 3494 4666 
L 4128 4666 
L 4128 1753 
Q 4128 841 3676 375 
Q 3225 -91 2344 -91 
Q 1459 -91 1007 375 
Q 556 841 556 1753 
L 556 4666 
z
" id="DejaVuSans-55" transform="scale(0.015625)"/>
      <path d="M 3122 3366 
L 3122 2828 
Q 2878 2963 2633 3030 
Q 2388 3097 2138 3097 
Q 1578 3097 1268 2742 
Q 959 2388 959 1747 
Q 959 1106 1268 751 
Q 1578 397 2138 397 
Q 2388 397 2633 464 
Q 2878 531 3122 666 
L 3122 134 
Q 2881 22 2623 -34 
Q 2366 -91 2075 -91 
Q 1284 -91 818 406 
Q 353 903 353 1747 
Q 353 2603 823 3093 
Q 1294 3584 2113 3584 
Q 2378 3584 2631 3529 
Q 2884 3475 3122 3366 
z
" id="DejaVuSans-63" transform="scale(0.015625)"/>
      <path d="M 1172 4494 
L 1172 3500 
L 2356 3500 
L 2356 3053 
L 1172 3053 
L 1172 1153 
Q 1172 725 1289 603 
Q 1406 481 1766 481 
L 2356 481 
L 2356 0 
L 1766 0 
Q 1100 0 847 248 
Q 594 497 594 1153 
L 594 3053 
L 172 3053 
L 172 3500 
L 594 3500 
L 594 4494 
L 1172 4494 
z
" id="DejaVuSans-74" transform="scale(0.015625)"/>
      <path d="M 1159 525 
L 1159 -1331 
L 581 -1331 
L 581 3500 
L 1159 3500 
L 1159 2969 
Q 1341 3281 1617 3432 
Q 1894 3584 2278 3584 
Q 2916 3584 3314 3078 
Q 3713 2572 3713 1747 
Q 3713 922 3314 415 
Q 2916 -91 2278 -91 
Q 1894 -91 1617 61 
Q 1341 213 1159 525 
z
M 3116 1747 
Q 3116 2381 2855 2742 
Q 2594 3103 2138 3103 
Q 1681 3103 1420 2742 
Q 1159 2381 1159 1747 
Q 1159 1113 1420 752 
Q 1681 391 2138 391 
Q 2594 391 2855 752 
Q 3116 1113 3116 1747 
z
" id="DejaVuSans-70" transform="scale(0.015625)"/>
      <path d="M 2906 2969 
L 2906 4863 
L 3481 4863 
L 3481 0 
L 2906 0 
L 2906 525 
Q 2725 213 2448 61 
Q 2172 -91 1784 -91 
Q 1150 -91 751 415 
Q 353 922 353 1747 
Q 353 2572 751 3078 
Q 1150 3584 1784 3584 
Q 2172 3584 2448 3432 
Q 2725 3281 2906 2969 
z
M 947 1747 
Q 947 1113 1208 752 
Q 1469 391 1925 391 
Q 2381 391 2643 752 
Q 2906 1113 2906 1747 
Q 2906 2381 2643 2742 
Q 2381 3103 1925 3103 
Q 1469 3103 1208 2742 
Q 947 2381 947 1747 
z
" id="DejaVuSans-64" transform="scale(0.015625)"/>
     </defs>
     <use xlink:href="#DejaVuSans-55"/>
     <use x="73.193359" xlink:href="#DejaVuSans-6e"/>
     <use x="136.572266" xlink:href="#DejaVuSans-69"/>
     <use x="164.355469" xlink:href="#DejaVuSans-71"/>
     <use x="227.832031" xlink:href="#DejaVuSans-75"/>
     <use x="291.210938" xlink:href="#DejaVuSans-65"/>
     <use x="352.734375" xlink:href="#DejaVuSans-20"/>
     <use x="384.521484" xlink:href="#DejaVuSans-75"/>
     <use x="447.900391" xlink:href="#DejaVuSans-73"/>
     <use x="500" xlink:href="#DejaVuSans-65"/>
     <use x="561.523438" xlink:href="#DejaVuSans-72"/>
     <use x="602.636719" xlink:href="#DejaVuSans-20"/>
     <use x="634.423828" xlink:href="#DejaVuSans-63"/>
     <use x="689.404297" xlink:href="#DejaVuSans-6f"/>
     <use x="750.585938" xlink:href="#DejaVuSans-75"/>
     <use x="813.964844" xlink:href="#DejaVuSans-6e"/>
     <use x="877.34375" xlink:href="#DejaVuSans-74"/>
     <use x="916.552734" xlink:href="#DejaVuSans-73"/>
     <use x="968.652344" xlink:href="#DejaVuSans-20"/>
     <use x="1000.439453" xlink:href="#DejaVuSans-66"/>
     <use x="1035.644531" xlink:href="#DejaVuSans-6f"/>
     <use x="1096.826172" xlink:href="#DejaVuSans-72"/>
     <use x="1137.939453" xlink:href="#DejaVuSans-20"/>
     <use x="1169.726562" xlink:href="#DejaVuSans-74"/>
     <use x="1208.935547" xlink:href="#DejaVuSans-6f"/>
     <use x="1270.117188" xlink:href="#DejaVuSans-70"/>
     <use x="1333.59375" xlink:href="#DejaVuSans-20"/>
     <use x="1365.380859" xlink:href="#DejaVuSans-38"/>
     <use x="1429.003906" xlink:href="#DejaVuSans-37"/>
     <use x="1492.626953" xlink:href="#DejaVuSans-20"/>
     <use x="1524.414062" xlink:href="#DejaVuSans-64"/>
     <use x="1587.890625" xlink:href="#DejaVuSans-6f"/>
     <use x="1649.072266" xlink:href="#DejaVuSans-6d"/>
     <use x="1746.484375" xlink:href="#DejaVuSans-61"/>
     <use x="1807.763672" xlink:href="#DejaVuSans-69"/>
     <use x="1835.546875" xlink:href="#DejaVuSans-6e"/>
     <use x="1898.925781" xlink:href="#DejaVuSans-73"/>
    </g>
   </g>
  </g>
 </g>
 <defs>
  <clipPath id="p43f5a58fdc">
   <rect height="236.4" width="364.275" x="56.925" y="26.8"/>
  </clipPath>
 </defs>
</svg>
