<?xml version="1.0" encoding="utf-8" standalone="no"?>
<!DOCTYPE svg PUBLIC "-//W3C//DTD SVG 1.1//EN"
  "http://www.w3.org/Graphics/SVG/1.1/DTD/svg11.dtd">
<svg height="288pt" version="1.1" viewBox="0 0 432 288" width="432pt" xmlns="http://www.w3.org/2000/svg" xmlns:xlink="http://www.w3.org/1999/xlink">
 <metadata>
  <rdf:RDF xmlns:cc="http://creativecommons.org/ns#" xmlns:dc="http://purl.org/dc/elements/1.1/" xmlns:rdf="http://www.w3.org/1999/02/22-rdf-syntax-ns#">
   <cc:Work>
    <dc:type rdf:resource="http://purl.org/dc/dcmitype/StillImage"/>
    <dc:date>2021-11-18T09:01:24.678321</dc:date>
    <dc:format>image/svg+xml</dc:format>
    <dc:creator>
     <cc:Agent>
      <dc:title>Matplotlib v3.4.3, https://matplotlib.org/</dc:title>
     </cc:Agent>
    </dc:creator>
   </cc:Work>
  </rdf:RDF>
 </metadata>
 <defs>
  <style type="text/css">*{stroke-linecap:butt;stroke-linejoin:round;}</style>
 </defs>
 <g id="figure_1">
  <g id="patch_1">
   <path d="M 0 288 
L 432 288 
L 432 0 
L 0 0 
z
" style="fill:none;"/>
  </g>
  <g id="axes_1">
   <g id="patch_2">
    <path d="M 88.3 246.2 
L 419.758058 246.2 
L 419.758058 10.8 
L 88.3 10.8 
z
" style="fill:#ffffff;"/>
   </g>
   <g id="PathCollection_1">
    <defs>
     <path d="M 0 3 
C 0.795609 3 1.55874 2.683901 2.12132 2.12132 
C 2.683901 1.55874 3 0.795609 3 0 
C 3 -0.795609 2.683901 -1.55874 2.12132 -2.12132 
C 1.55874 -2.683901 0.795609 -3 0 -3 
C -0.795609 -3 -1.55874 -2.683901 -2.12132 -2.12132 
C -2.683901 -1.55874 -3 -0.795609 -3 0 
C -3 0.795609 -2.683901 1.55874 -2.12132 2.12132 
C -1.55874 2.683901 -0.795609 3 0 3 
z
" id="m55689b1a78" style="stroke:#1f77b4;stroke-opacity:0.8;"/>
    </defs>
    <g clip-path="url(#pab1c471412)">
     <use style="fill:#1f77b4;fill-opacity:0.8;stroke:#1f77b4;stroke-opacity:0.8;" x="404.691782" xlink:href="#m55689b1a78" y="21.5"/>
     <use style="fill:#1f77b4;fill-opacity:0.8;stroke:#1f77b4;stroke-opacity:0.8;" x="257.167836" xlink:href="#m55689b1a78" y="101.842165"/>
     <use style="fill:#1f77b4;fill-opacity:0.8;stroke:#1f77b4;stroke-opacity:0.8;" x="298.82837" xlink:href="#m55689b1a78" y="102.307467"/>
     <use style="fill:#1f77b4;fill-opacity:0.8;stroke:#1f77b4;stroke-opacity:0.8;" x="260.021298" xlink:href="#m55689b1a78" y="113.164516"/>
     <use style="fill:#1f77b4;fill-opacity:0.8;stroke:#1f77b4;stroke-opacity:0.8;" x="289.697294" xlink:href="#m55689b1a78" y="122.315458"/>
     <use style="fill:#1f77b4;fill-opacity:0.8;stroke:#1f77b4;stroke-opacity:0.8;" x="228.91857" xlink:href="#m55689b1a78" y="134.258212"/>
     <use style="fill:#1f77b4;fill-opacity:0.8;stroke:#1f77b4;stroke-opacity:0.8;" x="176.985575" xlink:href="#m55689b1a78" y="146.97647"/>
     <use style="fill:#1f77b4;fill-opacity:0.8;stroke:#1f77b4;stroke-opacity:0.8;" x="193.250304" xlink:href="#m55689b1a78" y="152.404995"/>
     <use style="fill:#1f77b4;fill-opacity:0.8;stroke:#1f77b4;stroke-opacity:0.8;" x="216.648687" xlink:href="#m55689b1a78" y="154.266203"/>
     <use style="fill:#1f77b4;fill-opacity:0.8;stroke:#1f77b4;stroke-opacity:0.8;" x="178.12696" xlink:href="#m55689b1a78" y="154.886606"/>
     <use style="fill:#1f77b4;fill-opacity:0.8;stroke:#1f77b4;stroke-opacity:0.8;" x="211.797803" xlink:href="#m55689b1a78" y="155.81721"/>
     <use style="fill:#1f77b4;fill-opacity:0.8;stroke:#1f77b4;stroke-opacity:0.8;" x="206.09088" xlink:href="#m55689b1a78" y="164.037548"/>
     <use style="fill:#1f77b4;fill-opacity:0.8;stroke:#1f77b4;stroke-opacity:0.8;" x="203.808111" xlink:href="#m55689b1a78" y="167.604864"/>
     <use style="fill:#1f77b4;fill-opacity:0.8;stroke:#1f77b4;stroke-opacity:0.8;" x="184.689921" xlink:href="#m55689b1a78" y="173.033388"/>
     <use style="fill:#1f77b4;fill-opacity:0.8;stroke:#1f77b4;stroke-opacity:0.8;" x="206.09088" xlink:href="#m55689b1a78" y="173.808892"/>
     <use style="fill:#1f77b4;fill-opacity:0.8;stroke:#1f77b4;stroke-opacity:0.8;" x="254.599721" xlink:href="#m55689b1a78" y="176.910906"/>
     <use style="fill:#1f77b4;fill-opacity:0.8;stroke:#1f77b4;stroke-opacity:0.8;" x="193.820997" xlink:href="#m55689b1a78" y="177.221107"/>
     <use style="fill:#1f77b4;fill-opacity:0.8;stroke:#1f77b4;stroke-opacity:0.8;" x="254.029029" xlink:href="#m55689b1a78" y="178.151712"/>
     <use style="fill:#1f77b4;fill-opacity:0.8;stroke:#1f77b4;stroke-opacity:0.8;" x="103.366275" xlink:href="#m55689b1a78" y="180.478222"/>
     <use style="fill:#1f77b4;fill-opacity:0.8;stroke:#1f77b4;stroke-opacity:0.8;" x="198.386535" xlink:href="#m55689b1a78" y="181.098625"/>
    </g>
   </g>
   <g id="PolyCollection_1">
    <path clip-path="url(#pab1c471412)" d="M 103.366275 181.094985 
L 103.366275 235.5 
L 106.409967 233.42884 
L 109.453659 231.354248 
L 112.497351 229.256394 
L 115.541043 227.217045 
L 118.584735 225.20689 
L 121.628427 223.212391 
L 124.672119 221.203871 
L 127.715811 219.134647 
L 130.759503 217.086082 
L 133.803195 215.116974 
L 136.846887 213.090824 
L 139.890579 211.067137 
L 142.934271 209.01941 
L 145.977963 206.982661 
L 149.021655 204.949276 
L 152.065347 202.876169 
L 155.109039 200.81868 
L 158.152731 198.744074 
L 161.196423 196.711218 
L 164.240115 194.767288 
L 167.283807 192.736128 
L 170.327499 190.716726 
L 173.371191 188.728081 
L 176.414883 186.770347 
L 179.458575 184.721651 
L 182.502267 182.737543 
L 185.545959 180.762688 
L 188.589651 178.787297 
L 191.633343 176.862578 
L 194.677035 174.905456 
L 197.720727 172.942166 
L 200.764419 171.04744 
L 203.808111 169.16953 
L 206.851803 167.351816 
L 209.895495 165.578426 
L 212.939187 164.080286 
L 215.982879 162.760971 
L 219.026571 161.463388 
L 222.070263 160.276582 
L 225.113955 159.272182 
L 228.157647 158.3157 
L 231.201339 157.278798 
L 234.245031 156.467611 
L 237.288723 155.688667 
L 240.332415 155.010342 
L 243.376107 154.397744 
L 246.419799 153.600604 
L 249.463491 152.99506 
L 252.507183 152.342082 
L 255.550875 151.661621 
L 258.594567 150.988721 
L 261.638259 150.390879 
L 264.681951 149.754412 
L 267.725643 149.113967 
L 270.769335 148.428073 
L 273.813027 147.794104 
L 276.856719 147.056148 
L 279.900411 146.400948 
L 282.944103 145.728356 
L 285.987795 145.111989 
L 289.031487 144.469288 
L 292.075179 143.858924 
L 295.118871 143.217977 
L 298.162563 142.554769 
L 301.206255 141.891339 
L 304.249947 141.249613 
L 307.293639 140.571012 
L 310.337331 139.883736 
L 313.381023 139.219059 
L 316.424715 138.551657 
L 319.468407 137.878912 
L 322.512099 137.237077 
L 325.555791 136.529381 
L 328.599483 135.917171 
L 331.643175 135.262249 
L 334.686867 134.625645 
L 337.730559 134.00115 
L 340.774251 133.296884 
L 343.817943 132.657772 
L 346.861635 132.0717 
L 349.905327 131.485627 
L 352.949019 130.899555 
L 355.992711 130.295242 
L 359.036403 129.65767 
L 362.080095 129.018627 
L 365.123787 128.375057 
L 368.167479 127.699335 
L 371.211171 127.036996 
L 374.254863 126.410005 
L 377.298555 125.739536 
L 380.342247 125.070912 
L 383.385939 124.413356 
L 386.429631 123.782169 
L 389.473323 123.121405 
L 392.517015 122.465606 
L 395.560707 121.893189 
L 398.604399 121.262988 
L 401.648091 120.632786 
L 404.691782 120.002584 
L 404.691782 25.675407 
L 404.691782 25.675407 
L 401.648091 27.720327 
L 398.604399 29.797205 
L 395.560707 31.834834 
L 392.517015 33.882431 
L 389.473323 35.919211 
L 386.429631 37.944374 
L 383.385939 39.927529 
L 380.342247 41.982763 
L 377.298555 44.050056 
L 374.254863 46.069182 
L 371.211171 48.119793 
L 368.167479 50.133234 
L 365.123787 52.154648 
L 362.080095 54.146247 
L 359.036403 56.11494 
L 355.992711 58.155339 
L 352.949019 60.104463 
L 349.905327 62.084611 
L 346.861635 64.08051 
L 343.817943 66.130049 
L 340.774251 68.136545 
L 337.730559 70.098281 
L 334.686867 72.095838 
L 331.643175 74.046709 
L 328.599483 76.01886 
L 325.555791 77.972869 
L 322.512099 79.898709 
L 319.468407 81.881507 
L 316.424715 83.831438 
L 313.381023 85.774101 
L 310.337331 87.7215 
L 307.293639 89.646864 
L 304.249947 91.564726 
L 301.206255 93.482065 
L 298.162563 95.44043 
L 295.118871 97.310438 
L 292.075179 99.159421 
L 289.031487 101.108999 
L 285.987795 103.05253 
L 282.944103 104.938831 
L 279.900411 106.797745 
L 276.856719 108.622526 
L 273.813027 110.480422 
L 270.769335 112.325943 
L 267.725643 114.154329 
L 264.681951 115.975217 
L 261.638259 117.790411 
L 258.594567 119.54754 
L 255.550875 121.273018 
L 252.507183 123.064348 
L 249.463491 124.794698 
L 246.419799 126.548909 
L 243.376107 128.301057 
L 240.332415 130.051627 
L 237.288723 131.725036 
L 234.245031 133.402496 
L 231.201339 135.046842 
L 228.157647 136.754974 
L 225.113955 138.448856 
L 222.070263 140.125788 
L 219.026571 141.757119 
L 215.982879 143.38151 
L 212.939187 144.929704 
L 209.895495 146.537035 
L 206.851803 148.092792 
L 203.808111 149.608415 
L 200.764419 151.117738 
L 197.720727 152.548558 
L 194.677035 154.001922 
L 191.633343 155.407671 
L 188.589651 156.739995 
L 185.545959 157.986266 
L 182.502267 159.261323 
L 179.458575 160.535918 
L 176.414883 161.755565 
L 173.371191 162.863977 
L 170.327499 163.908088 
L 167.283807 164.92606 
L 164.240115 165.846908 
L 161.196423 166.808669 
L 158.152731 167.713827 
L 155.109039 168.608614 
L 152.065347 169.392102 
L 149.021655 170.180612 
L 145.977963 170.914364 
L 142.934271 171.719669 
L 139.890579 172.412538 
L 136.846887 173.230603 
L 133.803195 173.920635 
L 130.759503 174.706619 
L 127.715811 175.439118 
L 124.672119 176.198348 
L 121.628427 176.958434 
L 118.584735 177.71643 
L 115.541043 178.425062 
L 112.497351 179.205133 
L 109.453659 179.786983 
L 106.409967 180.493721 
L 103.366275 181.094985 
z
" style="fill:#1f77b4;fill-opacity:0.15;"/>
   </g>
   <g id="matplotlib.axis_1">
    <g id="xtick_1">
     <g id="line2d_1">
      <defs>
       <path d="M 0 0 
L 0 3.5 
" id="mb622bdcf80" style="stroke:#000000;stroke-width:0.8;"/>
      </defs>
      <g>
       <use style="stroke:#000000;stroke-width:0.8;" x="123.340504" xlink:href="#mb622bdcf80" y="246.2"/>
      </g>
     </g>
     <g id="text_1">
      <!-- 200 -->
      <g transform="translate(113.796754 260.798437)scale(0.1 -0.1)">
       <defs>
        <path d="M 1228 531 
L 3431 531 
L 3431 0 
L 469 0 
L 469 531 
Q 828 903 1448 1529 
Q 2069 2156 2228 2338 
Q 2531 2678 2651 2914 
Q 2772 3150 2772 3378 
Q 2772 3750 2511 3984 
Q 2250 4219 1831 4219 
Q 1534 4219 1204 4116 
Q 875 4013 500 3803 
L 500 4441 
Q 881 4594 1212 4672 
Q 1544 4750 1819 4750 
Q 2544 4750 2975 4387 
Q 3406 4025 3406 3419 
Q 3406 3131 3298 2873 
Q 3191 2616 2906 2266 
Q 2828 2175 2409 1742 
Q 1991 1309 1228 531 
z
" id="DejaVuSans-32" transform="scale(0.015625)"/>
        <path d="M 2034 4250 
Q 1547 4250 1301 3770 
Q 1056 3291 1056 2328 
Q 1056 1369 1301 889 
Q 1547 409 2034 409 
Q 2525 409 2770 889 
Q 3016 1369 3016 2328 
Q 3016 3291 2770 3770 
Q 2525 4250 2034 4250 
z
M 2034 4750 
Q 2819 4750 3233 4129 
Q 3647 3509 3647 2328 
Q 3647 1150 3233 529 
Q 2819 -91 2034 -91 
Q 1250 -91 836 529 
Q 422 1150 422 2328 
Q 422 3509 836 4129 
Q 1250 4750 2034 4750 
z
" id="DejaVuSans-30" transform="scale(0.015625)"/>
       </defs>
       <use xlink:href="#DejaVuSans-32"/>
       <use x="63.623047" xlink:href="#DejaVuSans-30"/>
       <use x="127.246094" xlink:href="#DejaVuSans-30"/>
      </g>
     </g>
    </g>
    <g id="xtick_2">
     <g id="line2d_2">
      <g>
       <use style="stroke:#000000;stroke-width:0.8;" x="180.409729" xlink:href="#mb622bdcf80" y="246.2"/>
      </g>
     </g>
     <g id="text_2">
      <!-- 400 -->
      <g transform="translate(170.865979 260.798437)scale(0.1 -0.1)">
       <defs>
        <path d="M 2419 4116 
L 825 1625 
L 2419 1625 
L 2419 4116 
z
M 2253 4666 
L 3047 4666 
L 3047 1625 
L 3713 1625 
L 3713 1100 
L 3047 1100 
L 3047 0 
L 2419 0 
L 2419 1100 
L 313 1100 
L 313 1709 
L 2253 4666 
z
" id="DejaVuSans-34" transform="scale(0.015625)"/>
       </defs>
       <use xlink:href="#DejaVuSans-34"/>
       <use x="63.623047" xlink:href="#DejaVuSans-30"/>
       <use x="127.246094" xlink:href="#DejaVuSans-30"/>
      </g>
     </g>
    </g>
    <g id="xtick_3">
     <g id="line2d_3">
      <g>
       <use style="stroke:#000000;stroke-width:0.8;" x="237.478954" xlink:href="#mb622bdcf80" y="246.2"/>
      </g>
     </g>
     <g id="text_3">
      <!-- 600 -->
      <g transform="translate(227.935204 260.798437)scale(0.1 -0.1)">
       <defs>
        <path d="M 2113 2584 
Q 1688 2584 1439 2293 
Q 1191 2003 1191 1497 
Q 1191 994 1439 701 
Q 1688 409 2113 409 
Q 2538 409 2786 701 
Q 3034 994 3034 1497 
Q 3034 2003 2786 2293 
Q 2538 2584 2113 2584 
z
M 3366 4563 
L 3366 3988 
Q 3128 4100 2886 4159 
Q 2644 4219 2406 4219 
Q 1781 4219 1451 3797 
Q 1122 3375 1075 2522 
Q 1259 2794 1537 2939 
Q 1816 3084 2150 3084 
Q 2853 3084 3261 2657 
Q 3669 2231 3669 1497 
Q 3669 778 3244 343 
Q 2819 -91 2113 -91 
Q 1303 -91 875 529 
Q 447 1150 447 2328 
Q 447 3434 972 4092 
Q 1497 4750 2381 4750 
Q 2619 4750 2861 4703 
Q 3103 4656 3366 4563 
z
" id="DejaVuSans-36" transform="scale(0.015625)"/>
       </defs>
       <use xlink:href="#DejaVuSans-36"/>
       <use x="63.623047" xlink:href="#DejaVuSans-30"/>
       <use x="127.246094" xlink:href="#DejaVuSans-30"/>
      </g>
     </g>
    </g>
    <g id="xtick_4">
     <g id="line2d_4">
      <g>
       <use style="stroke:#000000;stroke-width:0.8;" x="294.548179" xlink:href="#mb622bdcf80" y="246.2"/>
      </g>
     </g>
     <g id="text_4">
      <!-- 800 -->
      <g transform="translate(285.004429 260.798437)scale(0.1 -0.1)">
       <defs>
        <path d="M 2034 2216 
Q 1584 2216 1326 1975 
Q 1069 1734 1069 1313 
Q 1069 891 1326 650 
Q 1584 409 2034 409 
Q 2484 409 2743 651 
Q 3003 894 3003 1313 
Q 3003 1734 2745 1975 
Q 2488 2216 2034 2216 
z
M 1403 2484 
Q 997 2584 770 2862 
Q 544 3141 544 3541 
Q 544 4100 942 4425 
Q 1341 4750 2034 4750 
Q 2731 4750 3128 4425 
Q 3525 4100 3525 3541 
Q 3525 3141 3298 2862 
Q 3072 2584 2669 2484 
Q 3125 2378 3379 2068 
Q 3634 1759 3634 1313 
Q 3634 634 3220 271 
Q 2806 -91 2034 -91 
Q 1263 -91 848 271 
Q 434 634 434 1313 
Q 434 1759 690 2068 
Q 947 2378 1403 2484 
z
M 1172 3481 
Q 1172 3119 1398 2916 
Q 1625 2713 2034 2713 
Q 2441 2713 2670 2916 
Q 2900 3119 2900 3481 
Q 2900 3844 2670 4047 
Q 2441 4250 2034 4250 
Q 1625 4250 1398 4047 
Q 1172 3844 1172 3481 
z
" id="DejaVuSans-38" transform="scale(0.015625)"/>
       </defs>
       <use xlink:href="#DejaVuSans-38"/>
       <use x="63.623047" xlink:href="#DejaVuSans-30"/>
       <use x="127.246094" xlink:href="#DejaVuSans-30"/>
      </g>
     </g>
    </g>
    <g id="xtick_5">
     <g id="line2d_5">
      <g>
       <use style="stroke:#000000;stroke-width:0.8;" x="351.617403" xlink:href="#mb622bdcf80" y="246.2"/>
      </g>
     </g>
     <g id="text_5">
      <!-- 1000 -->
      <g transform="translate(338.892403 260.798437)scale(0.1 -0.1)">
       <defs>
        <path d="M 794 531 
L 1825 531 
L 1825 4091 
L 703 3866 
L 703 4441 
L 1819 4666 
L 2450 4666 
L 2450 531 
L 3481 531 
L 3481 0 
L 794 0 
L 794 531 
z
" id="DejaVuSans-31" transform="scale(0.015625)"/>
       </defs>
       <use xlink:href="#DejaVuSans-31"/>
       <use x="63.623047" xlink:href="#DejaVuSans-30"/>
       <use x="127.246094" xlink:href="#DejaVuSans-30"/>
       <use x="190.869141" xlink:href="#DejaVuSans-30"/>
      </g>
     </g>
    </g>
    <g id="xtick_6">
     <g id="line2d_6">
      <g>
       <use style="stroke:#000000;stroke-width:0.8;" x="408.686628" xlink:href="#mb622bdcf80" y="246.2"/>
      </g>
     </g>
     <g id="text_6">
      <!-- 1200 -->
      <g transform="translate(395.961628 260.798437)scale(0.1 -0.1)">
       <use xlink:href="#DejaVuSans-31"/>
       <use x="63.623047" xlink:href="#DejaVuSans-32"/>
       <use x="127.246094" xlink:href="#DejaVuSans-30"/>
       <use x="190.869141" xlink:href="#DejaVuSans-30"/>
      </g>
     </g>
    </g>
    <g id="text_7">
     <!-- Citizen Browser Unique Users -->
     <g transform="translate(180.266529 274.476562)scale(0.1 -0.1)">
      <defs>
       <path d="M 4122 4306 
L 4122 3641 
Q 3803 3938 3442 4084 
Q 3081 4231 2675 4231 
Q 1875 4231 1450 3742 
Q 1025 3253 1025 2328 
Q 1025 1406 1450 917 
Q 1875 428 2675 428 
Q 3081 428 3442 575 
Q 3803 722 4122 1019 
L 4122 359 
Q 3791 134 3420 21 
Q 3050 -91 2638 -91 
Q 1578 -91 968 557 
Q 359 1206 359 2328 
Q 359 3453 968 4101 
Q 1578 4750 2638 4750 
Q 3056 4750 3426 4639 
Q 3797 4528 4122 4306 
z
" id="DejaVuSans-43" transform="scale(0.015625)"/>
       <path d="M 603 3500 
L 1178 3500 
L 1178 0 
L 603 0 
L 603 3500 
z
M 603 4863 
L 1178 4863 
L 1178 4134 
L 603 4134 
L 603 4863 
z
" id="DejaVuSans-69" transform="scale(0.015625)"/>
       <path d="M 1172 4494 
L 1172 3500 
L 2356 3500 
L 2356 3053 
L 1172 3053 
L 1172 1153 
Q 1172 725 1289 603 
Q 1406 481 1766 481 
L 2356 481 
L 2356 0 
L 1766 0 
Q 1100 0 847 248 
Q 594 497 594 1153 
L 594 3053 
L 172 3053 
L 172 3500 
L 594 3500 
L 594 4494 
L 1172 4494 
z
" id="DejaVuSans-74" transform="scale(0.015625)"/>
       <path d="M 353 3500 
L 3084 3500 
L 3084 2975 
L 922 459 
L 3084 459 
L 3084 0 
L 275 0 
L 275 525 
L 2438 3041 
L 353 3041 
L 353 3500 
z
" id="DejaVuSans-7a" transform="scale(0.015625)"/>
       <path d="M 3597 1894 
L 3597 1613 
L 953 1613 
Q 991 1019 1311 708 
Q 1631 397 2203 397 
Q 2534 397 2845 478 
Q 3156 559 3463 722 
L 3463 178 
Q 3153 47 2828 -22 
Q 2503 -91 2169 -91 
Q 1331 -91 842 396 
Q 353 884 353 1716 
Q 353 2575 817 3079 
Q 1281 3584 2069 3584 
Q 2775 3584 3186 3129 
Q 3597 2675 3597 1894 
z
M 3022 2063 
Q 3016 2534 2758 2815 
Q 2500 3097 2075 3097 
Q 1594 3097 1305 2825 
Q 1016 2553 972 2059 
L 3022 2063 
z
" id="DejaVuSans-65" transform="scale(0.015625)"/>
       <path d="M 3513 2113 
L 3513 0 
L 2938 0 
L 2938 2094 
Q 2938 2591 2744 2837 
Q 2550 3084 2163 3084 
Q 1697 3084 1428 2787 
Q 1159 2491 1159 1978 
L 1159 0 
L 581 0 
L 581 3500 
L 1159 3500 
L 1159 2956 
Q 1366 3272 1645 3428 
Q 1925 3584 2291 3584 
Q 2894 3584 3203 3211 
Q 3513 2838 3513 2113 
z
" id="DejaVuSans-6e" transform="scale(0.015625)"/>
       <path id="DejaVuSans-20" transform="scale(0.015625)"/>
       <path d="M 1259 2228 
L 1259 519 
L 2272 519 
Q 2781 519 3026 730 
Q 3272 941 3272 1375 
Q 3272 1813 3026 2020 
Q 2781 2228 2272 2228 
L 1259 2228 
z
M 1259 4147 
L 1259 2741 
L 2194 2741 
Q 2656 2741 2882 2914 
Q 3109 3088 3109 3444 
Q 3109 3797 2882 3972 
Q 2656 4147 2194 4147 
L 1259 4147 
z
M 628 4666 
L 2241 4666 
Q 2963 4666 3353 4366 
Q 3744 4066 3744 3513 
Q 3744 3084 3544 2831 
Q 3344 2578 2956 2516 
Q 3422 2416 3680 2098 
Q 3938 1781 3938 1306 
Q 3938 681 3513 340 
Q 3088 0 2303 0 
L 628 0 
L 628 4666 
z
" id="DejaVuSans-42" transform="scale(0.015625)"/>
       <path d="M 2631 2963 
Q 2534 3019 2420 3045 
Q 2306 3072 2169 3072 
Q 1681 3072 1420 2755 
Q 1159 2438 1159 1844 
L 1159 0 
L 581 0 
L 581 3500 
L 1159 3500 
L 1159 2956 
Q 1341 3275 1631 3429 
Q 1922 3584 2338 3584 
Q 2397 3584 2469 3576 
Q 2541 3569 2628 3553 
L 2631 2963 
z
" id="DejaVuSans-72" transform="scale(0.015625)"/>
       <path d="M 1959 3097 
Q 1497 3097 1228 2736 
Q 959 2375 959 1747 
Q 959 1119 1226 758 
Q 1494 397 1959 397 
Q 2419 397 2687 759 
Q 2956 1122 2956 1747 
Q 2956 2369 2687 2733 
Q 2419 3097 1959 3097 
z
M 1959 3584 
Q 2709 3584 3137 3096 
Q 3566 2609 3566 1747 
Q 3566 888 3137 398 
Q 2709 -91 1959 -91 
Q 1206 -91 779 398 
Q 353 888 353 1747 
Q 353 2609 779 3096 
Q 1206 3584 1959 3584 
z
" id="DejaVuSans-6f" transform="scale(0.015625)"/>
       <path d="M 269 3500 
L 844 3500 
L 1563 769 
L 2278 3500 
L 2956 3500 
L 3675 769 
L 4391 3500 
L 4966 3500 
L 4050 0 
L 3372 0 
L 2619 2869 
L 1863 0 
L 1184 0 
L 269 3500 
z
" id="DejaVuSans-77" transform="scale(0.015625)"/>
       <path d="M 2834 3397 
L 2834 2853 
Q 2591 2978 2328 3040 
Q 2066 3103 1784 3103 
Q 1356 3103 1142 2972 
Q 928 2841 928 2578 
Q 928 2378 1081 2264 
Q 1234 2150 1697 2047 
L 1894 2003 
Q 2506 1872 2764 1633 
Q 3022 1394 3022 966 
Q 3022 478 2636 193 
Q 2250 -91 1575 -91 
Q 1294 -91 989 -36 
Q 684 19 347 128 
L 347 722 
Q 666 556 975 473 
Q 1284 391 1588 391 
Q 1994 391 2212 530 
Q 2431 669 2431 922 
Q 2431 1156 2273 1281 
Q 2116 1406 1581 1522 
L 1381 1569 
Q 847 1681 609 1914 
Q 372 2147 372 2553 
Q 372 3047 722 3315 
Q 1072 3584 1716 3584 
Q 2034 3584 2315 3537 
Q 2597 3491 2834 3397 
z
" id="DejaVuSans-73" transform="scale(0.015625)"/>
       <path d="M 556 4666 
L 1191 4666 
L 1191 1831 
Q 1191 1081 1462 751 
Q 1734 422 2344 422 
Q 2950 422 3222 751 
Q 3494 1081 3494 1831 
L 3494 4666 
L 4128 4666 
L 4128 1753 
Q 4128 841 3676 375 
Q 3225 -91 2344 -91 
Q 1459 -91 1007 375 
Q 556 841 556 1753 
L 556 4666 
z
" id="DejaVuSans-55" transform="scale(0.015625)"/>
       <path d="M 947 1747 
Q 947 1113 1208 752 
Q 1469 391 1925 391 
Q 2381 391 2643 752 
Q 2906 1113 2906 1747 
Q 2906 2381 2643 2742 
Q 2381 3103 1925 3103 
Q 1469 3103 1208 2742 
Q 947 2381 947 1747 
z
M 2906 525 
Q 2725 213 2448 61 
Q 2172 -91 1784 -91 
Q 1150 -91 751 415 
Q 353 922 353 1747 
Q 353 2572 751 3078 
Q 1150 3584 1784 3584 
Q 2172 3584 2448 3432 
Q 2725 3281 2906 2969 
L 2906 3500 
L 3481 3500 
L 3481 -1331 
L 2906 -1331 
L 2906 525 
z
" id="DejaVuSans-71" transform="scale(0.015625)"/>
       <path d="M 544 1381 
L 544 3500 
L 1119 3500 
L 1119 1403 
Q 1119 906 1312 657 
Q 1506 409 1894 409 
Q 2359 409 2629 706 
Q 2900 1003 2900 1516 
L 2900 3500 
L 3475 3500 
L 3475 0 
L 2900 0 
L 2900 538 
Q 2691 219 2414 64 
Q 2138 -91 1772 -91 
Q 1169 -91 856 284 
Q 544 659 544 1381 
z
M 1991 3584 
L 1991 3584 
z
" id="DejaVuSans-75" transform="scale(0.015625)"/>
      </defs>
      <use xlink:href="#DejaVuSans-43"/>
      <use x="69.824219" xlink:href="#DejaVuSans-69"/>
      <use x="97.607422" xlink:href="#DejaVuSans-74"/>
      <use x="136.816406" xlink:href="#DejaVuSans-69"/>
      <use x="164.599609" xlink:href="#DejaVuSans-7a"/>
      <use x="217.089844" xlink:href="#DejaVuSans-65"/>
      <use x="278.613281" xlink:href="#DejaVuSans-6e"/>
      <use x="341.992188" xlink:href="#DejaVuSans-20"/>
      <use x="373.779297" xlink:href="#DejaVuSans-42"/>
      <use x="442.382812" xlink:href="#DejaVuSans-72"/>
      <use x="481.246094" xlink:href="#DejaVuSans-6f"/>
      <use x="542.427734" xlink:href="#DejaVuSans-77"/>
      <use x="624.214844" xlink:href="#DejaVuSans-73"/>
      <use x="676.314453" xlink:href="#DejaVuSans-65"/>
      <use x="737.837891" xlink:href="#DejaVuSans-72"/>
      <use x="778.951172" xlink:href="#DejaVuSans-20"/>
      <use x="810.738281" xlink:href="#DejaVuSans-55"/>
      <use x="883.931641" xlink:href="#DejaVuSans-6e"/>
      <use x="947.310547" xlink:href="#DejaVuSans-69"/>
      <use x="975.09375" xlink:href="#DejaVuSans-71"/>
      <use x="1038.570312" xlink:href="#DejaVuSans-75"/>
      <use x="1101.949219" xlink:href="#DejaVuSans-65"/>
      <use x="1163.472656" xlink:href="#DejaVuSans-20"/>
      <use x="1195.259766" xlink:href="#DejaVuSans-55"/>
      <use x="1268.453125" xlink:href="#DejaVuSans-73"/>
      <use x="1320.552734" xlink:href="#DejaVuSans-65"/>
      <use x="1382.076172" xlink:href="#DejaVuSans-72"/>
      <use x="1423.189453" xlink:href="#DejaVuSans-73"/>
     </g>
    </g>
   </g>
   <g id="matplotlib.axis_2">
    <g id="ytick_1">
     <g id="line2d_7">
      <defs>
       <path d="M 0 0 
L -3.5 0 
" id="m0682ec8d7f" style="stroke:#000000;stroke-width:0.8;"/>
      </defs>
      <g>
       <use style="stroke:#000000;stroke-width:0.8;" x="88.3" xlink:href="#m0682ec8d7f" y="244.534813"/>
      </g>
     </g>
     <g id="text_8">
      <!-- 40000000 -->
      <g transform="translate(30.4 248.334032)scale(0.1 -0.1)">
       <use xlink:href="#DejaVuSans-34"/>
       <use x="63.623047" xlink:href="#DejaVuSans-30"/>
       <use x="127.246094" xlink:href="#DejaVuSans-30"/>
       <use x="190.869141" xlink:href="#DejaVuSans-30"/>
       <use x="254.492188" xlink:href="#DejaVuSans-30"/>
       <use x="318.115234" xlink:href="#DejaVuSans-30"/>
       <use x="381.738281" xlink:href="#DejaVuSans-30"/>
       <use x="445.361328" xlink:href="#DejaVuSans-30"/>
      </g>
     </g>
    </g>
    <g id="ytick_2">
     <g id="line2d_8">
      <g>
       <use style="stroke:#000000;stroke-width:0.8;" x="88.3" xlink:href="#m0682ec8d7f" y="213.514672"/>
      </g>
     </g>
     <g id="text_9">
      <!-- 60000000 -->
      <g transform="translate(30.4 217.313891)scale(0.1 -0.1)">
       <use xlink:href="#DejaVuSans-36"/>
       <use x="63.623047" xlink:href="#DejaVuSans-30"/>
       <use x="127.246094" xlink:href="#DejaVuSans-30"/>
       <use x="190.869141" xlink:href="#DejaVuSans-30"/>
       <use x="254.492188" xlink:href="#DejaVuSans-30"/>
       <use x="318.115234" xlink:href="#DejaVuSans-30"/>
       <use x="381.738281" xlink:href="#DejaVuSans-30"/>
       <use x="445.361328" xlink:href="#DejaVuSans-30"/>
      </g>
     </g>
    </g>
    <g id="ytick_3">
     <g id="line2d_9">
      <g>
       <use style="stroke:#000000;stroke-width:0.8;" x="88.3" xlink:href="#m0682ec8d7f" y="182.494531"/>
      </g>
     </g>
     <g id="text_10">
      <!-- 80000000 -->
      <g transform="translate(30.4 186.29375)scale(0.1 -0.1)">
       <use xlink:href="#DejaVuSans-38"/>
       <use x="63.623047" xlink:href="#DejaVuSans-30"/>
       <use x="127.246094" xlink:href="#DejaVuSans-30"/>
       <use x="190.869141" xlink:href="#DejaVuSans-30"/>
       <use x="254.492188" xlink:href="#DejaVuSans-30"/>
       <use x="318.115234" xlink:href="#DejaVuSans-30"/>
       <use x="381.738281" xlink:href="#DejaVuSans-30"/>
       <use x="445.361328" xlink:href="#DejaVuSans-30"/>
      </g>
     </g>
    </g>
    <g id="ytick_4">
     <g id="line2d_10">
      <g>
       <use style="stroke:#000000;stroke-width:0.8;" x="88.3" xlink:href="#m0682ec8d7f" y="151.47439"/>
      </g>
     </g>
     <g id="text_11">
      <!-- 100000000 -->
      <g transform="translate(24.0375 155.273609)scale(0.1 -0.1)">
       <use xlink:href="#DejaVuSans-31"/>
       <use x="63.623047" xlink:href="#DejaVuSans-30"/>
       <use x="127.246094" xlink:href="#DejaVuSans-30"/>
       <use x="190.869141" xlink:href="#DejaVuSans-30"/>
       <use x="254.492188" xlink:href="#DejaVuSans-30"/>
       <use x="318.115234" xlink:href="#DejaVuSans-30"/>
       <use x="381.738281" xlink:href="#DejaVuSans-30"/>
       <use x="445.361328" xlink:href="#DejaVuSans-30"/>
       <use x="508.984375" xlink:href="#DejaVuSans-30"/>
      </g>
     </g>
    </g>
    <g id="ytick_5">
     <g id="line2d_11">
      <g>
       <use style="stroke:#000000;stroke-width:0.8;" x="88.3" xlink:href="#m0682ec8d7f" y="120.45425"/>
      </g>
     </g>
     <g id="text_12">
      <!-- 120000000 -->
      <g transform="translate(24.0375 124.253468)scale(0.1 -0.1)">
       <use xlink:href="#DejaVuSans-31"/>
       <use x="63.623047" xlink:href="#DejaVuSans-32"/>
       <use x="127.246094" xlink:href="#DejaVuSans-30"/>
       <use x="190.869141" xlink:href="#DejaVuSans-30"/>
       <use x="254.492188" xlink:href="#DejaVuSans-30"/>
       <use x="318.115234" xlink:href="#DejaVuSans-30"/>
       <use x="381.738281" xlink:href="#DejaVuSans-30"/>
       <use x="445.361328" xlink:href="#DejaVuSans-30"/>
       <use x="508.984375" xlink:href="#DejaVuSans-30"/>
      </g>
     </g>
    </g>
    <g id="ytick_6">
     <g id="line2d_12">
      <g>
       <use style="stroke:#000000;stroke-width:0.8;" x="88.3" xlink:href="#m0682ec8d7f" y="89.434109"/>
      </g>
     </g>
     <g id="text_13">
      <!-- 140000000 -->
      <g transform="translate(24.0375 93.233327)scale(0.1 -0.1)">
       <use xlink:href="#DejaVuSans-31"/>
       <use x="63.623047" xlink:href="#DejaVuSans-34"/>
       <use x="127.246094" xlink:href="#DejaVuSans-30"/>
       <use x="190.869141" xlink:href="#DejaVuSans-30"/>
       <use x="254.492188" xlink:href="#DejaVuSans-30"/>
       <use x="318.115234" xlink:href="#DejaVuSans-30"/>
       <use x="381.738281" xlink:href="#DejaVuSans-30"/>
       <use x="445.361328" xlink:href="#DejaVuSans-30"/>
       <use x="508.984375" xlink:href="#DejaVuSans-30"/>
      </g>
     </g>
    </g>
    <g id="ytick_7">
     <g id="line2d_13">
      <g>
       <use style="stroke:#000000;stroke-width:0.8;" x="88.3" xlink:href="#m0682ec8d7f" y="58.413968"/>
      </g>
     </g>
     <g id="text_14">
      <!-- 160000000 -->
      <g transform="translate(24.0375 62.213186)scale(0.1 -0.1)">
       <use xlink:href="#DejaVuSans-31"/>
       <use x="63.623047" xlink:href="#DejaVuSans-36"/>
       <use x="127.246094" xlink:href="#DejaVuSans-30"/>
       <use x="190.869141" xlink:href="#DejaVuSans-30"/>
       <use x="254.492188" xlink:href="#DejaVuSans-30"/>
       <use x="318.115234" xlink:href="#DejaVuSans-30"/>
       <use x="381.738281" xlink:href="#DejaVuSans-30"/>
       <use x="445.361328" xlink:href="#DejaVuSans-30"/>
       <use x="508.984375" xlink:href="#DejaVuSans-30"/>
      </g>
     </g>
    </g>
    <g id="ytick_8">
     <g id="line2d_14">
      <g>
       <use style="stroke:#000000;stroke-width:0.8;" x="88.3" xlink:href="#m0682ec8d7f" y="27.393827"/>
      </g>
     </g>
     <g id="text_15">
      <!-- 180000000 -->
      <g transform="translate(24.0375 31.193046)scale(0.1 -0.1)">
       <use xlink:href="#DejaVuSans-31"/>
       <use x="63.623047" xlink:href="#DejaVuSans-38"/>
       <use x="127.246094" xlink:href="#DejaVuSans-30"/>
       <use x="190.869141" xlink:href="#DejaVuSans-30"/>
       <use x="254.492188" xlink:href="#DejaVuSans-30"/>
       <use x="318.115234" xlink:href="#DejaVuSans-30"/>
       <use x="381.738281" xlink:href="#DejaVuSans-30"/>
       <use x="445.361328" xlink:href="#DejaVuSans-30"/>
       <use x="508.984375" xlink:href="#DejaVuSans-30"/>
      </g>
     </g>
    </g>
    <g id="text_16">
     <!-- Facebook Unique Users -->
     <g transform="translate(17.957812 186.813281)rotate(-90)scale(0.1 -0.1)">
      <defs>
       <path d="M 628 4666 
L 3309 4666 
L 3309 4134 
L 1259 4134 
L 1259 2759 
L 3109 2759 
L 3109 2228 
L 1259 2228 
L 1259 0 
L 628 0 
L 628 4666 
z
" id="DejaVuSans-46" transform="scale(0.015625)"/>
       <path d="M 2194 1759 
Q 1497 1759 1228 1600 
Q 959 1441 959 1056 
Q 959 750 1161 570 
Q 1363 391 1709 391 
Q 2188 391 2477 730 
Q 2766 1069 2766 1631 
L 2766 1759 
L 2194 1759 
z
M 3341 1997 
L 3341 0 
L 2766 0 
L 2766 531 
Q 2569 213 2275 61 
Q 1981 -91 1556 -91 
Q 1019 -91 701 211 
Q 384 513 384 1019 
Q 384 1609 779 1909 
Q 1175 2209 1959 2209 
L 2766 2209 
L 2766 2266 
Q 2766 2663 2505 2880 
Q 2244 3097 1772 3097 
Q 1472 3097 1187 3025 
Q 903 2953 641 2809 
L 641 3341 
Q 956 3463 1253 3523 
Q 1550 3584 1831 3584 
Q 2591 3584 2966 3190 
Q 3341 2797 3341 1997 
z
" id="DejaVuSans-61" transform="scale(0.015625)"/>
       <path d="M 3122 3366 
L 3122 2828 
Q 2878 2963 2633 3030 
Q 2388 3097 2138 3097 
Q 1578 3097 1268 2742 
Q 959 2388 959 1747 
Q 959 1106 1268 751 
Q 1578 397 2138 397 
Q 2388 397 2633 464 
Q 2878 531 3122 666 
L 3122 134 
Q 2881 22 2623 -34 
Q 2366 -91 2075 -91 
Q 1284 -91 818 406 
Q 353 903 353 1747 
Q 353 2603 823 3093 
Q 1294 3584 2113 3584 
Q 2378 3584 2631 3529 
Q 2884 3475 3122 3366 
z
" id="DejaVuSans-63" transform="scale(0.015625)"/>
       <path d="M 3116 1747 
Q 3116 2381 2855 2742 
Q 2594 3103 2138 3103 
Q 1681 3103 1420 2742 
Q 1159 2381 1159 1747 
Q 1159 1113 1420 752 
Q 1681 391 2138 391 
Q 2594 391 2855 752 
Q 3116 1113 3116 1747 
z
M 1159 2969 
Q 1341 3281 1617 3432 
Q 1894 3584 2278 3584 
Q 2916 3584 3314 3078 
Q 3713 2572 3713 1747 
Q 3713 922 3314 415 
Q 2916 -91 2278 -91 
Q 1894 -91 1617 61 
Q 1341 213 1159 525 
L 1159 0 
L 581 0 
L 581 4863 
L 1159 4863 
L 1159 2969 
z
" id="DejaVuSans-62" transform="scale(0.015625)"/>
       <path d="M 581 4863 
L 1159 4863 
L 1159 1991 
L 2875 3500 
L 3609 3500 
L 1753 1863 
L 3688 0 
L 2938 0 
L 1159 1709 
L 1159 0 
L 581 0 
L 581 4863 
z
" id="DejaVuSans-6b" transform="scale(0.015625)"/>
      </defs>
      <use xlink:href="#DejaVuSans-46"/>
      <use x="48.394531" xlink:href="#DejaVuSans-61"/>
      <use x="109.673828" xlink:href="#DejaVuSans-63"/>
      <use x="164.654297" xlink:href="#DejaVuSans-65"/>
      <use x="226.177734" xlink:href="#DejaVuSans-62"/>
      <use x="289.654297" xlink:href="#DejaVuSans-6f"/>
      <use x="350.835938" xlink:href="#DejaVuSans-6f"/>
      <use x="412.017578" xlink:href="#DejaVuSans-6b"/>
      <use x="469.927734" xlink:href="#DejaVuSans-20"/>
      <use x="501.714844" xlink:href="#DejaVuSans-55"/>
      <use x="574.908203" xlink:href="#DejaVuSans-6e"/>
      <use x="638.287109" xlink:href="#DejaVuSans-69"/>
      <use x="666.070312" xlink:href="#DejaVuSans-71"/>
      <use x="729.546875" xlink:href="#DejaVuSans-75"/>
      <use x="792.925781" xlink:href="#DejaVuSans-65"/>
      <use x="854.449219" xlink:href="#DejaVuSans-20"/>
      <use x="886.236328" xlink:href="#DejaVuSans-55"/>
      <use x="959.429688" xlink:href="#DejaVuSans-73"/>
      <use x="1011.529297" xlink:href="#DejaVuSans-65"/>
      <use x="1073.052734" xlink:href="#DejaVuSans-72"/>
      <use x="1114.166016" xlink:href="#DejaVuSans-73"/>
     </g>
    </g>
   </g>
   <g id="line2d_15">
    <path clip-path="url(#pab1c471412)" d="M 103.366275 211.117248 
L 106.409967 209.516739 
L 109.453659 207.91623 
L 112.497351 206.315721 
L 115.541043 204.715212 
L 118.584735 203.114703 
L 121.628427 201.514194 
L 124.672119 199.913685 
L 127.715811 198.313176 
L 130.759503 196.712667 
L 133.803195 195.112158 
L 136.846887 193.511648 
L 139.890579 191.911139 
L 142.934271 190.31063 
L 145.977963 188.710121 
L 149.021655 187.109612 
L 152.065347 185.509103 
L 155.109039 183.908594 
L 158.152731 182.308085 
L 161.196423 180.707576 
L 164.240115 179.107067 
L 167.283807 177.506558 
L 170.327499 175.906049 
L 173.371191 174.305539 
L 176.414883 172.70503 
L 179.458575 171.104521 
L 182.502267 169.504012 
L 185.545959 167.903503 
L 188.589651 166.302994 
L 191.633343 164.702485 
L 194.677035 163.101976 
L 197.720727 161.501467 
L 200.764419 159.900958 
L 203.808111 158.300449 
L 206.851803 156.69994 
L 209.895495 155.09943 
L 212.939187 153.498921 
L 215.982879 151.898412 
L 219.026571 150.297903 
L 222.070263 148.697394 
L 225.113955 147.096885 
L 228.157647 145.496376 
L 231.201339 143.895867 
L 234.245031 142.295358 
L 237.288723 140.694849 
L 240.332415 139.09434 
L 243.376107 137.493831 
L 246.419799 135.893321 
L 249.463491 134.292812 
L 252.507183 132.692303 
L 255.550875 131.091794 
L 258.594567 129.491285 
L 261.638259 127.890776 
L 264.681951 126.290267 
L 267.725643 124.689758 
L 270.769335 123.089249 
L 273.813027 121.48874 
L 276.856719 119.888231 
L 279.900411 118.287722 
L 282.944103 116.687212 
L 285.987795 115.086703 
L 289.031487 113.486194 
L 292.075179 111.885685 
L 295.118871 110.285176 
L 298.162563 108.684667 
L 301.206255 107.084158 
L 304.249947 105.483649 
L 307.293639 103.88314 
L 310.337331 102.282631 
L 313.381023 100.682122 
L 316.424715 99.081613 
L 319.468407 97.481103 
L 322.512099 95.880594 
L 325.555791 94.280085 
L 328.599483 92.679576 
L 331.643175 91.079067 
L 334.686867 89.478558 
L 337.730559 87.878049 
L 340.774251 86.27754 
L 343.817943 84.677031 
L 346.861635 83.076522 
L 349.905327 81.476013 
L 352.949019 79.875504 
L 355.992711 78.274994 
L 359.036403 76.674485 
L 362.080095 75.073976 
L 365.123787 73.473467 
L 368.167479 71.872958 
L 371.211171 70.272449 
L 374.254863 68.67194 
L 377.298555 67.071431 
L 380.342247 65.470922 
L 383.385939 63.870413 
L 386.429631 62.269904 
L 389.473323 60.669395 
L 392.517015 59.068885 
L 395.560707 57.468376 
L 398.604399 55.867867 
L 401.648091 54.267358 
L 404.691782 52.666849 
" style="fill:none;stroke:#1f77b4;stroke-linecap:square;stroke-width:2.25;"/>
   </g>
   <g id="patch_3">
    <path d="M 88.3 246.2 
L 88.3 10.8 
" style="fill:none;stroke:#000000;stroke-linecap:square;stroke-linejoin:miter;stroke-width:0.8;"/>
   </g>
   <g id="patch_4">
    <path d="M 419.758058 246.2 
L 419.758058 10.8 
" style="fill:none;stroke:#000000;stroke-linecap:square;stroke-linejoin:miter;stroke-width:0.8;"/>
   </g>
   <g id="patch_5">
    <path d="M 88.3 246.2 
L 419.758058 246.2 
" style="fill:none;stroke:#000000;stroke-linecap:square;stroke-linejoin:miter;stroke-width:0.8;"/>
   </g>
   <g id="patch_6">
    <path d="M 88.3 10.8 
L 419.758058 10.8 
" style="fill:none;stroke:#000000;stroke-linecap:square;stroke-linejoin:miter;stroke-width:0.8;"/>
   </g>
  </g>
 </g>
 <defs>
  <clipPath id="pab1c471412">
   <rect height="235.4" width="331.458058" x="88.3" y="10.8"/>
  </clipPath>
 </defs>
</svg>
